<?xml version="1.0" encoding="UTF-8" standalone="no"?>
<!-- Created with Inkscape (http://www.inkscape.org/) -->

<svg
   xmlns:dc="http://purl.org/dc/elements/1.1/"
   xmlns:cc="http://creativecommons.org/ns#"
   xmlns:rdf="http://www.w3.org/1999/02/22-rdf-syntax-ns#"
   xmlns:svg="http://www.w3.org/2000/svg"
   xmlns="http://www.w3.org/2000/svg"
   xmlns:sodipodi="http://sodipodi.sourceforge.net/DTD/sodipodi-0.dtd"
   xmlns:inkscape="http://www.inkscape.org/namespaces/inkscape"
   inkscape:export-ydpi="90"
   inkscape:export-xdpi="90"
   inkscape:export-filename="G:\_PROJECTS\__TUTS\TUTS.GRAPHICS\IN_PROGRESS\6\How to draw bottle with potion\Video\Post\potion_1_1.png"
   sodipodi:docname="cauldron.svg"
   inkscape:version="0.48.4 r9939"
   version="1.1"
   id="svg2"
   height="1000"
   width="1000">
  <sodipodi:namedview
     id="base"
     pagecolor="#ffffff"
     bordercolor="#666666"
     borderopacity="1.0"
     inkscape:pageopacity="0"
     inkscape:pageshadow="2"
     inkscape:zoom="0.70710678"
     inkscape:cx="145.1213"
     inkscape:cy="426.4682"
     inkscape:document-units="px"
     inkscape:current-layer="layer3"
     showgrid="false"
     inkscape:window-width="913"
     inkscape:window-height="1041"
     inkscape:window-x="62"
     inkscape:window-y="0"
     inkscape:window-maximized="0"
     inkscape:showpageshadow="false"
     showborder="true"
     inkscape:object-nodes="true"
     inkscape:snap-nodes="false"
     showguides="true"
     inkscape:guide-bbox="true"
     borderlayer="true" />
  <defs
     id="defs4" />
  <metadata
     id="metadata7">
    <rdf:RDF>
      <cc:Work
         rdf:about="">
        <dc:format>image/svg+xml</dc:format>
        <dc:type
           rdf:resource="http://purl.org/dc/dcmitype/StillImage" />
        <dc:title />
      </cc:Work>
    </rdf:RDF>
  </metadata>
  <g
     inkscape:groupmode="layer"
     id="layer3"
     inkscape:label="Layer"
     style="display:inline"
     transform="translate(0,-52.35999)">
    <g
       style="fill:#44aa00;fill-opacity:1;stroke:none"
       transform="matrix(1.4375838,0,0,1.4375838,-609.65322,-991.96822)"
       id="g11847">
      <path
         sodipodi:nodetypes="zzzzzzczzzzzzcz"
         inkscape:connector-curvature="0"
         id="path11849"
         d="m 677.28916,898.16659 c -48.59754,57.4174 -116.80511,-0.10994 -118.12056,31.07878 -1.31545,31.18872 126.37534,2.17128 77.76572,51.32172 -48.60962,49.15041 -64.22441,19.89551 -70.62791,55.39071 -6.40349,35.4952 86.04887,22.0023 59.70585,50.08 -26.34302,28.0777 -36.25713,22.9967 -42.33887,27.4161 -6.08174,4.4193 -8.50974,16.9647 -4.70599,27.0974 -7.62228,-3.5236 -9.54121,-6.9896 -17.044,-29.9634 -7.50278,-22.9738 45.38363,-4.574 46.54558,-25.3625 1.16196,-20.7884 -40.73846,-11.7844 -57.52804,-53.9062 -16.78958,-42.12185 47.28592,-9.4619 68.49103,-55.90359 21.20511,-46.4417 -43.82273,-0.17562 -82.9181,-48.5131 -39.09537,-48.33748 99.03576,14.7614 115.46992,-20.78401 16.43416,-35.5454 -102.21767,-1.30561 -77.01248,-61.8122 -0.40326,58.04826 150.91539,-3.55711 102.31785,53.86029 z"
         style="color:#000000;fill:#44aa00;fill-opacity:1;stroke:none;stroke-width:0.22138013px;marker:none;visibility:visible;display:inline;overflow:visible;enable-background:accumulate" />
      <g
         style="fill:#44aa00;fill-opacity:1;stroke:none"
         transform="matrix(0.27255355,0,0,0.27255355,596.2468,1731.6213)"
         id="g11851">
        <path
           style="color:#000000;fill:#44aa00;fill-opacity:1;stroke:none;stroke-width:1px;marker:none;visibility:visible;display:inline;overflow:visible;enable-background:accumulate"
           d="m 150.71429,-3339.0664 c 133.09641,12.9942 9.1933,122.4882 -64.285721,94.2857 207.085011,69.5838 298.571881,-88.1248 64.285721,-94.2857 z"
           id="path11853"
           inkscape:connector-curvature="0"
           sodipodi:nodetypes="ccc" />
        <path
           style="color:#000000;fill:#44aa00;fill-opacity:1;stroke:none;stroke-width:0.84917521px;marker:none;visibility:visible;display:inline;overflow:visible;enable-background:accumulate"
           d="m -2.4313007,-3461.5337 c -5.4219434,2.809 -131.4348093,84.5789 -36.1401273,113.8959 -160.302682,-2.0751 -102.539092,-129.4591 36.1401273,-113.8959 z"
           id="path11855"
           inkscape:connector-curvature="0"
           sodipodi:nodetypes="ccc" />
      </g>
    </g>
    <g
       id="g11195"
       transform="matrix(0.60661724,0,0,0.60661724,1435.5728,-317.70242)"
       style="stroke:none">
      <path
         transform="matrix(0.95037932,0,0,0.53452772,-2625.5168,1068.4988)"
         d="m 880.85304,1145.2963 c 0,36.8208 -89.54762,66.67 -200.01021,66.67 -110.46258,0 -200.0102,-29.8492 -200.0102,-66.67 0,-36.8209 89.54762,-66.6701 200.0102,-66.6701 110.46259,0 200.01021,29.8492 200.01021,66.6701 z"
         sodipodi:ry="66.670067"
         sodipodi:rx="200.01021"
         sodipodi:cy="1145.2963"
         sodipodi:cx="680.84283"
         id="path10622"
         style="color:#000000;fill:#68696b;fill-opacity:1;stroke:none;stroke-width:1;marker:none;visibility:visible;display:inline;overflow:visible;enable-background:accumulate"
         sodipodi:type="arc" />
      <path
         sodipodi:type="arc"
         style="color:#000000;fill:#3f3f41;fill-opacity:1;stroke:none;stroke-width:1;marker:none;visibility:visible;display:inline;overflow:visible;enable-background:accumulate"
         id="path10624"
         sodipodi:cx="701.04584"
         sodipodi:cy="1506.9308"
         sodipodi:rx="43.436558"
         sodipodi:ry="45.456863"
         d="m 744.4824,1506.9308 c 0,25.1051 -19.44721,45.4568 -43.43656,45.4568 -23.98935,0 -43.43656,-20.3517 -43.43656,-45.4568 0,-25.1051 19.44721,-45.4569 43.43656,-45.4569 23.98935,0 43.43656,20.3518 43.43656,45.4569 z"
         transform="matrix(0.78047742,0,0,1.0903463,-2494.6831,390.20871)" />
      <path
         transform="matrix(0.66652393,0,0,0.93115045,-2414.7965,623.38833)"
         d="m 744.4824,1506.9308 c 0,25.1051 -19.44721,45.4568 -43.43656,45.4568 -23.98935,0 -43.43656,-20.3517 -43.43656,-45.4568 0,-25.1051 19.44721,-45.4569 43.43656,-45.4569 23.98935,0 43.43656,20.3518 43.43656,45.4569 z"
         sodipodi:ry="45.456863"
         sodipodi:rx="43.436558"
         sodipodi:cy="1506.9308"
         sodipodi:cx="701.04584"
         id="path10626"
         style="color:#000000;fill:#535355;fill-opacity:1;stroke:none;stroke-width:1;marker:none;visibility:visible;display:inline;overflow:visible;enable-background:accumulate"
         sodipodi:type="arc" />
      <path
         sodipodi:type="arc"
         style="color:#000000;fill:#68696b;fill-opacity:1;stroke:none;stroke-width:1;marker:none;visibility:visible;display:inline;overflow:visible;enable-background:accumulate"
         id="path10628"
         sodipodi:cx="701.04584"
         sodipodi:cy="1506.9308"
         sodipodi:rx="43.436558"
         sodipodi:ry="45.456863"
         d="m 744.4824,1506.9308 c 0,25.1051 -19.44721,45.4568 -43.43656,45.4568 -23.98935,0 -43.43656,-20.3517 -43.43656,-45.4568 0,-25.1051 19.44721,-45.4569 43.43656,-45.4569 23.98935,0 43.43656,20.3518 43.43656,45.4569 z"
         transform="matrix(0.53290664,0,0,0.74448378,-2321.1246,899.73233)" />
      <path
         sodipodi:type="arc"
         style="color:#000000;fill:#3f3f41;fill-opacity:1;stroke:none;stroke-width:1;marker:none;visibility:visible;display:inline;overflow:visible;enable-background:accumulate"
         id="path10630"
         sodipodi:cx="517.85712"
         sodipodi:cy="1324.505"
         sodipodi:rx="272.14285"
         sodipodi:ry="272.14285"
         d="m 789.99997,1324.505 c 0,150.3004 -121.84251,272.1429 -272.14285,272.1429 -150.30035,0 -272.14286,-121.8425 -272.14286,-272.1429 0,-150.3003 121.84251,-272.1428 272.14286,-272.1428 150.30034,0 272.14285,121.8425 272.14285,272.1428 z"
         transform="matrix(0.9313563,0,0,0.69115578,-2465.424,931.23158)" />
      <path
         style="color:#000000;fill:#535355;fill-opacity:1;stroke:none;stroke-width:1;marker:none;visibility:visible;display:inline;overflow:visible;enable-background:accumulate"
         d="m -1983.125,1658.5788 c -139.9832,0 -253.4375,84.2127 -253.4375,188.0937 0,103.881 113.4543,188.0937 253.4375,188.0937 139.9832,0 253.4688,-84.2127 253.4688,-188.0937 0,-103.881 -113.4856,-188.0937 -253.4688,-188.0937 z m 0,4.25 c 130.9678,0 237.1563,82.3059 237.1563,183.8437 0,101.5378 -106.1885,183.8437 -237.1563,183.8437 -130.9678,0 -237.125,-82.3059 -237.125,-183.8437 0,-101.5378 106.1572,-183.8437 237.125,-183.8437 z"
         id="path10632"
         inkscape:connector-curvature="0" />
      <path
         transform="matrix(0.80315025,0,0,0.61789815,-2404.0316,1033.2646)"
         d="m 789.99997,1324.505 c 0,150.3004 -121.84251,272.1429 -272.14285,272.1429 -150.30035,0 -272.14286,-121.8425 -272.14286,-272.1429 0,-150.3003 121.84251,-272.1428 272.14286,-272.1428 150.30034,0 272.14285,121.8425 272.14285,272.1428 z"
         sodipodi:ry="272.14285"
         sodipodi:rx="272.14285"
         sodipodi:cy="1324.505"
         sodipodi:cx="517.85712"
         id="path10634"
         style="color:#000000;fill:#535355;fill-opacity:1;stroke:none;stroke-width:1;marker:none;visibility:visible;display:inline;overflow:visible;enable-background:accumulate"
         sodipodi:type="arc" />
      <path
         transform="matrix(0.68801129,0.10244403,-0.06764589,0.42988771,-2269.6372,1247.4738)"
         d="m 789.99997,1324.505 c 0,150.3004 -121.84251,272.1429 -272.14285,272.1429 -150.30035,0 -272.14286,-121.8425 -272.14286,-272.1429 0,-150.3003 121.84251,-272.1428 272.14286,-272.1428 150.30034,0 272.14285,121.8425 272.14285,272.1428 z"
         sodipodi:ry="272.14285"
         sodipodi:rx="272.14285"
         sodipodi:cy="1324.505"
         sodipodi:cx="517.85712"
         id="path10636"
         style="color:#000000;fill:#68696b;fill-opacity:1;stroke:none;stroke-width:1;marker:none;visibility:visible;display:inline;overflow:visible;enable-background:accumulate"
         sodipodi:type="arc" />
      <path
         sodipodi:type="arc"
         style="color:#000000;fill:#939498;fill-opacity:1;stroke:none;stroke-width:1;marker:none;visibility:visible;display:inline;overflow:visible;enable-background:accumulate"
         id="path10638"
         sodipodi:cx="517.85712"
         sodipodi:cy="1324.505"
         sodipodi:rx="272.14285"
         sodipodi:ry="272.14285"
         d="m 789.99997,1324.505 c 0,150.3004 -121.84251,272.1429 -272.14285,272.1429 -150.30035,0 -272.14286,-121.8425 -272.14286,-272.1429 0,-150.3003 121.84251,-272.1428 272.14286,-272.1428 150.30034,0 272.14285,121.8425 272.14285,272.1428 z"
         transform="matrix(0.36406948,0.05702049,-0.04231468,0.27017451,-2204.1437,1445.6674)" />
      <path
         sodipodi:type="arc"
         style="color:#000000;fill:#3f3f41;fill-opacity:1;stroke:none;stroke-width:1;marker:none;visibility:visible;display:inline;overflow:visible;enable-background:accumulate"
         id="path10640"
         sodipodi:cx="680.84283"
         sodipodi:cy="1145.2963"
         sodipodi:rx="200.01021"
         sodipodi:ry="66.670067"
         d="m 880.85304,1145.2963 c 0,36.8208 -89.54762,66.67 -200.01021,66.67 -110.46258,0 -200.0102,-29.8492 -200.0102,-66.67 0,-36.8209 89.54762,-66.6701 200.0102,-66.6701 110.46259,0 200.01021,29.8492 200.01021,66.6701 z"
         transform="matrix(1.0139332,0,0,0.53452772,-2668.787,1073.1212)" />
      <path
         style="color:#000000;fill:#535355;fill-opacity:1;stroke:none;stroke-width:0.62793087999999997;marker:none;visibility:visible;display:inline;overflow:visible;enable-background:accumulate"
         d="m -1978.47,1661.2359 c -24.3448,0 -47.6513,0.7983 -69.1673,2.2582 -35.1574,2.3857 -66.9387,12.0029 -79.7585,18.795 -12.8198,6.7922 -1.6608,6.4117 7.0419,4.2973 35.8392,-6.728 86.1495,-10.9057 141.8839,-10.9057 57.4079,0 109.0512,4.47 145.0619,11.5558 5.9162,-1.0196 11.329,-2.3646 0.3249,-7.2224 -11.004,-4.8577 -40.8091,-13.7818 -66.033,-15.7842 -24.2783,-1.9272 -51.1239,-2.994 -79.3538,-2.994 z"
         id="path10642"
         inkscape:connector-curvature="0"
         sodipodi:nodetypes="sszcsczss" />
      <path
         inkscape:connector-curvature="0"
         style="color:#000000;fill:#75d636;fill-opacity:1;stroke:none;stroke-width:0.56423241000000002;marker:none;visibility:visible;display:inline;overflow:visible;enable-background:accumulate"
         d="m -1978.4595,1672.0454 c -89.4443,0 -161.9421,13.1242 -161.9421,29.303 0,1.6462 0.7373,3.2509 2.1804,4.8231 35.7856,8.9585 93.9899,14.7672 159.7617,14.7672 65.7719,0 123.9762,-5.8087 159.7619,-14.7672 1.4431,-1.5722 2.1804,-3.1769 2.1804,-4.8231 0,-16.1788 -72.4979,-29.303 -161.9423,-29.303 z"
         id="path10644" />
      <path
         id="path10646"
         d="m -1978.4595,1677.9426 c -65.7539,0 -119.0499,9.6482 -119.0499,21.5417 0,1.2102 0.5421,2.3898 1.6029,3.5456 26.3074,6.5859 69.0956,10.856 117.447,10.856 48.3515,0 91.1397,-4.2701 117.4471,-10.856 1.0608,-1.1558 1.603,-2.3354 1.603,-3.5456 0,-11.8935 -53.296,-21.5417 -119.0501,-21.5417 z"
         style="color:#000000;fill:#44aa00;fill-opacity:1;stroke:none;stroke-width:0.56423241000000002;marker:none;visibility:visible;display:inline;overflow:visible;enable-background:accumulate"
         inkscape:connector-curvature="0" />
      <path
         style="color:#000000;fill:#3f3f41;fill-opacity:1;stroke:none;stroke-width:1.17391741000000010;marker:none;visibility:visible;display:inline;overflow:visible;enable-background:accumulate"
         d="m -2162.8899,1672.4023 c 57.131,26.3409 118.8073,26.8148 186.5677,26.6962 67.7604,-0.1187 127.2577,-0.075 186.8269,-26.6962 19.1573,7.0751 26.6458,17.5602 26.9222,28.1581 0.2391,9.1681 -1.4265,22.1362 -18.616,31.8564 -17.1896,9.7202 -51.7254,21.6109 -86.4224,28.9256 -34.6968,7.3145 -73.9682,8.7623 -107.8276,8.826 -33.8595,0.063 -70.6135,-3.1447 -106.3166,-9.8611 -35.7031,-6.7165 -71.2431,-15.9023 -90.1954,-27.8905 -18.9525,-11.9881 -20.6157,-22.0178 -20.4906,-31.5174 0.1651,-12.5195 9.1737,-26.5492 29.5518,-28.4971 z"
         id="path10648"
         inkscape:connector-curvature="0"
         sodipodi:nodetypes="cscszssszsc" />
      <path
         sodipodi:type="arc"
         style="color:#000000;fill:#d1d943;fill-opacity:1;fill-rule:nonzero;stroke:none;stroke-width:2;marker:none;visibility:visible;display:inline;overflow:visible;enable-background:accumulate"
         id="path10650"
         sodipodi:cx="-411"
         sodipodi:cy="1054.5"
         sodipodi:rx="27"
         sodipodi:ry="9"
         d="m -384,1054.5 c 0,4.9706 -12.08831,9 -27,9 -14.91169,0 -27,-4.0294 -27,-9 0,-4.9706 12.08831,-9 27,-9 14.91169,0 27,4.0294 27,9 z"
         transform="matrix(1.0057857,0,0,0.74898933,-1653.9276,899.34114)" />
      <path
         style="fill:#64462c;fill-opacity:1;stroke:none"
         d="m -2084.928,1689.5709 c -5.9346,-6.2354 -28.3455,-33.9091 -64.7564,-75.8223 -28.0659,-32.3071 -60.9236,-68.855 -89.2855,-96.9857 -23.7419,-23.5485 -32.3057,-76.1067 -16.6124,-83.0618 15.6935,-6.9551 61.4326,10.9982 92.1231,45.3064 24.5,27.3879 48.612,73.6545 67.4615,115.4991 21.935,48.6943 37.6622,85.2041 36.7433,91.4004 -0.9188,6.1964 -19.739,9.8993 -25.6736,3.6639 z"
         id="path10652"
         inkscape:connector-curvature="0"
         sodipodi:nodetypes="zsszsszz" />
      <path
         style="fill:#ae731a;fill-opacity:1;stroke:none"
         d="m -2088.8466,1674.3358 c -6.313,-5.0473 -34.9195,-39.1833 -68.3221,-77.8366 -23.406,-27.0854 -50.0793,-56.9199 -73.1061,-80.0562 -20.3648,-20.4617 -35.4009,-64.2595 -20.7045,-74.9032 14.6965,-10.6437 57.3518,8.3264 83.8854,38.2958 22.8483,25.807 46.5198,71.62 64.5148,111.0772 18.1002,39.6876 35.0974,70.769 34.1345,78.2565 -0.9627,7.4873 -14.0889,10.2136 -20.402,5.1665 z"
         id="path10654"
         inkscape:connector-curvature="0"
         sodipodi:nodetypes="zsszsszz" />
      <path
         style="color:#000000;fill:#535355;fill-opacity:1;stroke:none;stroke-width:1.17391741000000010;marker:none;visibility:visible;display:inline;overflow:visible;enable-background:accumulate"
         d="m -2166.3245,1687.6836 c -11.8785,1.9828 -17.1652,20.259 -6.7168,27.2285 17.7734,16.1649 42.6353,19.6796 65.0015,26.47 77.2196,18.4466 158.5838,20.9529 236.8224,7.1863 31.4962,-6.302 63.2036,-15.112 90.3883,-32.3924 6.8174,-7.482 5.6259,-21.1857 -3.9362,-25.5673 -3.771,-3.999 -8.6448,-1.1265 -12.3863,0.9388 -68.9378,26.4571 -144.2571,21.9915 -216.8165,22.209 -51.5332,-0.591 -104.3018,-5.6598 -151.887,-26.1451 l -0.4694,0.072 z"
         id="path10656"
         inkscape:connector-curvature="0" />
      <path
         style="color:#000000;fill:#68696b;fill-opacity:1;stroke:none;stroke-width:1.17391741000000010;marker:none;visibility:visible;display:inline;overflow:visible;enable-background:accumulate"
         d="m -2168.4085,1696.3116 c -6.7594,3.2645 -6.318,14.2514 0.8246,16.7944 22.1239,16.4632 50.3885,19.6236 76.3606,26.7397 83.8582,17.0462 172.2532,17.693 254.9713,-5.3768 17.6743,-5.5247 36.0451,-11.7102 50.3779,-23.3309 3.1106,-5.8592 -2.6649,-17.056 -9.8572,-11.2992 -49.8881,19.54 -103.6266,21.1844 -156.4619,23.4339 -52.8354,2.2494 -107.0791,1.0209 -158.9121,-9.8806 -19.5681,-3.9694 -38.844,-9.6406 -57.3032,-17.0805 z"
         id="path10658"
         inkscape:connector-curvature="0"
         sodipodi:nodetypes="cccccczcc" />
      <g
         style="fill:#3f3f41;fill-opacity:1;stroke:none"
         id="g10660"
         transform="matrix(0.91481947,0,0,0.91481947,-2589.1383,668.23905)">
        <path
           id="path10662"
           d="m 481.68161,1371.4146 c -11.75938,0.097 -26.39734,0.4749 -38.36005,11.9201 -11.96271,11.4453 -16.60106,36.99 -14.85045,56.5496 3.32693,37.1716 26.13876,74.4966 34.56851,81.4793 -12.05333,-1.9063 -27.14442,-0.4082 -37.70029,5.7939 -10.55587,6.2022 -14.58933,13.9143 -14.58933,22.4675 0,16.4502 16.53679,29.7813 46.34375,29.7812 29.80696,-10e-5 39.54197,-19.6202 35.46241,-45.0988 -4.07956,-25.4786 -0.276,-38.4264 4.16376,-53.1041 3.21252,-10.6205 8.09857,-19.9781 13.94397,-28.0361 6.38238,-8.7982 16.10231,-9.558 18.55682,-22.4713 2.45451,-12.9133 -2.5883,-27.5802 -10.97064,-38.0649 -10.42711,-13.0425 -24.80908,-21.3131 -36.56846,-21.2164 z"
           style="color:#000000;fill:#3f3f41;fill-opacity:1;stroke:none;stroke-width:0.91269438999999997;marker:none;visibility:visible;display:inline;overflow:visible;enable-background:accumulate"
           inkscape:connector-curvature="0"
           sodipodi:nodetypes="zzsczszzsszsz" />
      </g>
      <g
         transform="matrix(0.70541971,0,0,0.91481947,-2490.3994,668.23905)"
         id="g10664"
         style="fill:#535355;fill-opacity:1;stroke:none">
        <path
           sodipodi:nodetypes="zsczszzsszz"
           inkscape:connector-curvature="0"
           style="color:#000000;fill:#535355;fill-opacity:1;stroke:none;stroke-width:0.91269438999999997;marker:none;visibility:visible;display:inline;overflow:visible;enable-background:accumulate"
           d="m 459.80807,1377.3338 c -35.34269,7.6522 -44.45352,46.5197 -38.80453,68.6649 8.73746,34.2526 47.63651,76.7131 54.62796,82.1372 -9.99677,-1.4808 -29.02853,1.2288 -37.78334,6.0465 -8.7548,4.8179 -37.57074,11.5814 -37.57074,18.2254 0,12.7783 23.7496,23.1612 58.39402,20.4283 34.64442,-2.7329 35.8024,-21.0378 32.41891,-37.7374 -3.38349,-16.6996 -4.5733,-33.3193 2.35399,-53.6256 3.44144,-10.088 11.97637,-25.3481 19.63954,-31.8564 10.98956,-9.3334 20.86157,-14.1313 21.64861,-32.5295 0.78704,-18.3982 -39.58172,-47.4056 -74.92442,-39.7534 z"
           id="path10666" />
      </g>
      <path
         sodipodi:type="arc"
         style="color:#000000;fill:#68696b;fill-opacity:1;fill-rule:nonzero;stroke:none;stroke-width:2;marker:none;visibility:visible;display:inline;overflow:visible;enable-background:accumulate"
         id="path10668"
         sodipodi:cx="-531.92578"
         sodipodi:cy="1475.25"
         sodipodi:rx="33.574203"
         sodipodi:ry="20.75"
         d="m -498.35158,1475.25 c 0,11.4599 -15.03168,20.75 -33.5742,20.75 -18.54252,0 -33.5742,-9.2901 -33.5742,-20.75 0,-11.4599 15.03168,-20.75 33.5742,-20.75 18.54252,0 33.5742,9.2901 33.5742,20.75 z"
         transform="matrix(0.88086091,0,0,1,-1709.3732,607.85999)" />
      <path
         style="color:#000000;fill:#68696b;fill-opacity:1;stroke:none;stroke-width:1px;marker:none;visibility:visible;display:inline;overflow:visible;enable-background:accumulate"
         d="m -2184.2781,1943.6483 c -10.9419,17.3676 -10.1395,39.8983 -3.1979,63.0439 6.8379,22.7998 21.7844,32.9033 26.6559,24.477 2.2498,-3.8916 1.7633,-27.2498 17.1618,-45.7092 15.3985,-18.4594 20.7271,-25.5793 20.2209,-31.8841 -0.7845,-9.7704 -7.7908,-18.0409 -17.3647,-22.444 -14.1118,-6.4901 -32.5341,-4.8512 -43.476,12.5164 z"
         id="path10670"
         inkscape:connector-curvature="0"
         sodipodi:nodetypes="zsszssz" />
      <path
         transform="matrix(0.47876649,0,0,0.54352109,-1929.7575,1274.2805)"
         d="m -498.35158,1475.25 c 0,11.4599 -15.03168,20.75 -33.5742,20.75 -18.54252,0 -33.5742,-9.2901 -33.5742,-20.75 0,-11.4599 15.03168,-20.75 33.5742,-20.75 18.54252,0 33.5742,9.2901 33.5742,20.75 z"
         sodipodi:ry="20.75"
         sodipodi:rx="33.574203"
         sodipodi:cy="1475.25"
         sodipodi:cx="-531.92578"
         id="path10672"
         style="color:#000000;fill:#939498;fill-opacity:1;fill-rule:nonzero;stroke:none;stroke-width:2;marker:none;visibility:visible;display:inline;overflow:visible;enable-background:accumulate"
         sodipodi:type="arc" />
      <path
         style="color:#000000;fill:#939498;fill-opacity:1;stroke:none;stroke-width:1px;marker:none;visibility:visible;display:inline;overflow:visible;enable-background:accumulate"
         d="m -2170.4952,1932.7825 c -18.2894,9.5644 -26.4752,52.8855 -12.2153,60.7011 14.2599,7.8155 42.2659,-27.4903 41.7544,-47.9138 -0.3423,-13.6685 -20.0313,-17.7594 -29.5391,-12.7873 z"
         id="path10674"
         inkscape:connector-curvature="0"
         sodipodi:nodetypes="azsa" />
      <path
         id="path10676"
         d="m -1801.4808,1923.5429 c 6.0643,0.049 13.2961,-0.692 21.3039,5.6015 8.0079,6.2936 12.1194,17.3661 15.3778,26.9319 3.5039,10.2863 4.3408,20.1255 3.511,29.3969 -3.0435,34.0053 -23.9122,68.151 -31.6239,74.5389 11.0266,-1.7439 24.8322,-0.3734 34.4889,5.3004 9.6567,5.6739 13.3466,12.729 13.3466,20.5537 0,15.0489 -15.1282,27.2445 -42.3961,27.2444 -27.268,-1e-4 -36.1738,-17.9489 -32.4418,-41.2573 3.7321,-23.3083 0.2525,-35.1532 -3.809,-48.5806 -2.9389,-9.7159 -7.4088,-18.2764 -12.7563,-25.648 -5.8387,-8.0488 -16.8561,-11.3627 -19.8045,-20.5572 -2.9485,-9.1945 5.4126,-28.2136 15.137,-38.0208 9.6387,-9.7208 23.3652,-15.638 39.6664,-15.5038 z"
         style="color:#000000;fill:#3f3f41;fill-opacity:1;stroke:none;stroke-width:0.91269438999999997;marker:none;visibility:visible;display:inline;overflow:visible;enable-background:accumulate"
         inkscape:connector-curvature="0"
         sodipodi:nodetypes="czssczszzsszsc" />
      <path
         sodipodi:nodetypes="azsczzzzsszsa"
         inkscape:connector-curvature="0"
         style="color:#000000;fill:#535355;fill-opacity:1;stroke:none;stroke-width:0.91269438999999997;marker:none;visibility:visible;display:inline;overflow:visible;enable-background:accumulate"
         d="m -1802.6508,1929.5533 c 8.9606,0.5432 16.1437,3.948 23.5711,13.0262 7.4274,9.0782 11.1024,32.0713 9.9906,49.9648 -2.1131,34.0053 -28.9761,66.7368 -34.3301,73.1247 7.6555,-1.7439 18.301,-3.2019 29.9552,-0.3565 11.6542,2.8454 16.6908,11.4149 16.6908,21.9679 0,10.5529 -15.8064,18.0521 -34.7378,18.052 -18.9315,-10e-5 -26.5288,-11.5849 -23.9377,-34.8933 2.5911,-23.3083 0.5289,-34.4461 -2.291,-47.8735 -2.0404,-9.7159 -8.936,-20.6423 -13.0989,-27.7693 -5.1144,-8.7559 -14.966,-10.5404 -17.6389,-20.9108 -2.673,-10.3704 2.9345,-21.7802 8.9174,-29.4287 6.729,-8.6021 23.6654,-15.7064 36.9093,-14.9035 z"
         id="path10678" />
      <path
         transform="matrix(-0.79150659,0,0,0.89856024,-2212.5497,759.50899)"
         d="m -498.35158,1475.25 c 0,11.4599 -15.03168,20.75 -33.5742,20.75 -18.54252,0 -33.5742,-9.2901 -33.5742,-20.75 0,-11.4599 15.03168,-20.75 33.5742,-20.75 18.54252,0 33.5742,9.2901 33.5742,20.75 z"
         sodipodi:ry="20.75"
         sodipodi:rx="33.574203"
         sodipodi:cy="1475.25"
         sodipodi:cx="-531.92578"
         id="path10680"
         style="color:#000000;fill:#68696b;fill-opacity:1;fill-rule:nonzero;stroke:none;stroke-width:2;marker:none;visibility:visible;display:inline;overflow:visible;enable-background:accumulate"
         sodipodi:type="arc" />
      <path
         sodipodi:type="arc"
         style="color:#000000;fill:#939498;fill-opacity:1;fill-rule:nonzero;stroke:none;stroke-width:2;marker:none;visibility:visible;display:inline;overflow:visible;enable-background:accumulate"
         id="path10682"
         sodipodi:cx="-531.92578"
         sodipodi:cy="1475.25"
         sodipodi:rx="33.574203"
         sodipodi:ry="20.75"
         d="m -498.35158,1475.25 c 0,11.4599 -15.03168,20.75 -33.5742,20.75 -18.54252,0 -33.5742,-9.2901 -33.5742,-20.75 0,-11.4599 15.03168,-20.75 33.5742,-20.75 18.54252,0 33.5742,9.2901 33.5742,20.75 z"
         transform="matrix(-0.3596274,0,0,0.40826808,-1991.322,1479.3125)" />
      <path
         style="color:#000000;fill:#68696b;fill-opacity:1;stroke:none;stroke-width:1px;marker:none;visibility:visible;display:inline;overflow:visible;enable-background:accumulate"
         d="m -1812.9592,1937.9562 c -27.3522,-3.4489 -44.1532,26.9356 -30.0277,37.8181 14.1255,10.8825 17.895,15.5673 23.2886,26.3114 5.3072,10.572 6.5447,15.9189 8.7785,24.925 2.2339,9.0061 13.0055,7.5811 21.0019,-0.6054 6.2246,-6.3725 10.3802,-17.3707 11.2584,-27.1869 2.9574,-33.0568 -6.9474,-57.8133 -34.2997,-61.2622 z"
         id="path10684"
         inkscape:connector-curvature="0"
         sodipodi:nodetypes="zzszssz" />
      <g
         transform="translate(-1644,0)"
         id="g10688"
         style="stroke:none">
        <path
           sodipodi:type="arc"
           style="color:#000000;fill:#2f2f30;fill-opacity:1;stroke:none;stroke-width:1;marker:none;visibility:visible;display:inline;overflow:visible;enable-background:accumulate"
           id="path10690"
           sodipodi:cx="882.5"
           sodipodi:cy="1238.4336"
           sodipodi:rx="19.642857"
           sodipodi:ry="31.785715"
           d="m 902.14286,1238.4336 c 0,17.5548 -8.79441,31.7857 -19.64286,31.7857 -10.84845,0 -19.64286,-14.2309 -19.64286,-31.7857 0,-17.5548 8.79441,-31.7857 19.64286,-31.7857 10.84845,0 19.64286,14.2309 19.64286,31.7857 z"
           transform="matrix(-0.65354275,-0.64658615,-0.64583927,0.68598103,820.82453,1529.1501)" />
        <path
           style="color:#000000;fill:#3f3f41;fill-opacity:1;stroke:none;stroke-width:0.93242955000000005;marker:none;visibility:visible;display:inline;overflow:visible;enable-background:accumulate"
           d="m -564.53514,1755.7758 c 27.55271,10.7578 35.79583,55.6503 18.38516,100.2422 -17.41067,44.5919 -53.88136,71.9953 -81.43407,61.2375 -27.55272,-10.7578 -35.7767,-55.6121 -18.36603,-100.204 17.41067,-44.5918 53.86223,-72.0335 81.41494,-61.2757 z m -19.406,33.4584 c -12.93539,-5.0506 -23.88834,7.829 -32.06228,28.764 -8.17391,20.9348 -10.47214,41.9939 2.46325,47.0445 12.93538,5.0505 30.0349,-7.8175 38.20884,-28.7524 8.17391,-20.9349 4.32557,-42.0056 -8.60981,-47.0561 z"
           id="path10692"
           inkscape:connector-curvature="0"
           sodipodi:nodetypes="ssssssssss" />
        <path
           sodipodi:nodetypes="ssssssssss"
           inkscape:connector-curvature="0"
           id="path10694"
           d="m -569.9496,1767.5229 c 24.56778,9.5923 31.91789,49.6214 16.3934,89.3824 -15.52449,39.7611 -48.04412,64.1957 -72.61191,54.6034 -24.5678,-9.5924 -31.90083,-49.5874 -16.37635,-89.3484 15.52449,-39.761 48.02707,-64.2298 72.59486,-54.6374 z m -11.73509,11.8337 c -17.6768,-6.902 -32.64452,10.6986 -43.81459,39.3073 -11.17003,28.6083 -14.31066,57.3866 3.36614,64.2884 17.6768,6.9018 41.04409,-10.6828 52.21416,-39.2915 11.17003,-28.6085 5.91109,-57.4025 -11.76571,-64.3042 z"
           style="color:#000000;fill:#535355;fill-opacity:1;stroke:none;stroke-width:0.93242955000000005;marker:none;visibility:visible;display:inline;overflow:visible;enable-background:accumulate" />
        <path
           sodipodi:nodetypes="zssszsssss"
           inkscape:connector-curvature="0"
           id="path10696"
           d="m -576.90951,1768.8573 c 15.09123,7.6193 39.70573,27.7508 21.29506,82.3427 -15.2974,45.3603 -48.91689,62.3133 -76.4696,51.5555 -27.55272,-10.7578 -25.09768,-52.2302 -7.8903,-88.2832 20.94817,-43.8908 47.97361,-53.2343 63.06484,-45.615 z m -2.39116,5.3769 c -18.05436,-7.0493 -33.14176,13.5781 -47.76514,41.3288 -9.99439,18.9664 -20.1016,55.9304 -2.04723,62.9797 18.05435,7.0492 42.42073,-15.4112 53.82937,-44.6307 11.40861,-29.2196 14.03735,-52.6286 -4.017,-59.6778 z"
           style="color:#000000;fill:#68696b;fill-opacity:1;stroke:none;stroke-width:0.93242955000000005;marker:none;visibility:visible;display:inline;overflow:visible;enable-background:accumulate" />
        <path
           style="fill:#3f3f41;fill-opacity:1;stroke:none"
           d="m -531.54731,1791.3086 c -2.06884,-24.5109 -26.11953,-47.2432 -51.51536,-48.7131 -25.3958,-1.47 -45.50238,28.5421 -38.89508,47.3126 6.60729,18.7705 22.28433,25.8155 46.61685,41.8354 7.07107,-7.7782 1.06251,-16.6907 13.84655,-29.3604 12.78402,-12.6697 29.94704,-11.0745 29.94704,-11.0745 z"
           id="path10698"
           inkscape:connector-curvature="0"
           sodipodi:nodetypes="czzczc" />
        <path
           sodipodi:nodetypes="czzczc"
           inkscape:connector-curvature="0"
           id="path10700"
           d="m -540.29731,1785.4454 c -1.64009,-19.4312 -27.95645,-36.9524 -48.08918,-38.1177 -20.13271,-1.1653 -36.07235,22.627 -30.83436,37.5075 5.23797,14.8804 20.41606,23.4654 39.70585,36.1653 0.60564,-7.6663 2.09231,-15.7317 12.22695,-25.7757 10.13463,-10.044 26.99074,-9.7794 26.99074,-9.7794 z"
           style="fill:#535355;fill-opacity:1;stroke:none" />
        <path
           sodipodi:nodetypes="zzsccsz"
           inkscape:connector-curvature="0"
           id="path10702"
           d="m -603,1752.6725 c -6.63059,2.5933 -14.30064,12.7929 -14.6904,19.3614 -0.38976,6.5685 3.47656,14.6553 10.41664,21.8191 8.62873,8.9069 22.52636,15.1282 26.42149,13.6746 3.65071,-21.6491 15.23353,-23.5271 23.63352,-24.1364 0.56575,-4.1855 -7.89137,-13.0116 -14.64769,-18.6555 -10.4111,-8.697 -24.50297,-14.6565 -31.13356,-12.0632 z"
           style="fill:#68696b;fill-opacity:1;stroke:none" />
        <path
           sodipodi:nodetypes="zszzszz"
           inkscape:connector-curvature="0"
           id="path10704"
           d="m -636.13838,1883.4151 c 12.77058,8.1323 30.98977,2.3513 45.48312,-14.0896 16.56071,-18.7861 22.19032,-34.9313 23.39479,-50.5182 1.20446,-15.5869 9.41902,-4.7815 8.22609,10.0854 -1.19294,14.8669 -5.70707,33.0913 -23.52667,51.8144 -14.18753,14.9069 -34.47272,20.6635 -47.3599,16.3943 -12.88717,-4.2691 -18.988,-21.8186 -6.21743,-13.6863 z"
           style="color:#000000;fill:#939498;fill-opacity:1;stroke:none;stroke-width:1px;marker:none;visibility:visible;display:inline;overflow:visible;enable-background:accumulate" />
        <path
           sodipodi:nodetypes="asza"
           inkscape:connector-curvature="0"
           id="path10706"
           d="m -609.08671,1759.2465 c -6.76358,5.6783 -5.26254,15.0212 8.61969,25.052 9.69735,7.0069 27.82109,3.8619 25.31408,-6.2752 -2.50701,-10.137 -24.03292,-27.089 -33.93377,-18.7768 z"
           style="color:#000000;fill:#939498;fill-opacity:1;stroke:none;stroke-width:1px;marker:none;visibility:visible;display:inline;overflow:visible;enable-background:accumulate" />
      </g>
      <path
         style="color:#000000;fill:#939498;fill-opacity:1;stroke:none;stroke-width:0.88391757000000004px;marker:none;visibility:visible;display:inline;overflow:visible;enable-background:accumulate"
         d="m -2127.9727,1731.1604 c 23.0015,10.6857 80.2641,20.8923 104.9057,17.8075 24.6414,-3.0848 16.2042,-16.8833 -2.1138,-21.9643 -18.3179,-5.081 -84.1259,-14.2406 -100.1602,-14.4348 -16.0344,-0.1943 -25.6331,7.906 -2.6317,18.5916 z"
         id="path10708"
         inkscape:connector-curvature="0"
         sodipodi:nodetypes="zzzzz" />
      <path
         style="color:#000000;fill:#939498;fill-opacity:1;stroke:none;stroke-width:1px;marker:none;visibility:visible;display:inline;overflow:visible;enable-background:accumulate"
         d="m -1811.2307,1940.68 c -11.1271,-7.5273 -33.5713,8.8399 -33.5876,22.2739 -0.012,10.198 15.6541,19.7858 25.4558,16.9705 15.1885,-4.3626 19.197,-31.7589 8.1318,-39.2444 z"
         id="path10710"
         inkscape:connector-curvature="0"
         sodipodi:nodetypes="aasa" />
      <g
         id="g10712"
         transform="matrix(1.1555835,0,0,1.1555835,-1684.9496,-61.853592)"
         style="stroke:none">
        <path
           transform="matrix(0.76926279,-0.44413408,0.44413408,0.76926279,-476.44419,577.58295)"
           d="m -169.70564,959.38702 c 0,17.47597 -14.16706,31.64303 -31.64302,31.64303 -17.47597,0 -31.64303,-14.16706 -31.64303,-31.64303 0,-17.47596 14.16706,-31.64302 31.64303,-31.64302 17.47596,0 31.64302,14.16706 31.64302,31.64302 z"
           sodipodi:ry="31.643028"
           sodipodi:rx="31.643028"
           sodipodi:cy="959.38702"
           sodipodi:cx="-201.34866"
           id="path10714"
           style="color:#000000;fill:#75d636;fill-opacity:1;fill-rule:nonzero;stroke:none;stroke-width:2;marker:none;visibility:visible;display:inline;overflow:visible;enable-background:accumulate"
           sodipodi:type="arc" />
        <path
           id="path10716"
           transform="translate(0,452.35999)"
           d="m -205.78125,922.5 c -16.84222,0 -30.5,13.65778 -30.5,30.5 0,16.84222 13.65778,30.5 30.5,30.5 16.84222,0 30.46875,-13.65778 30.46875,-30.5 0,-16.84222 -13.62653,-30.5 -30.46875,-30.5 z m 0,3 c 15.18537,0 27.46875,12.31463 27.46875,27.5 0,15.18537 -12.28338,27.5 -27.46875,27.5 -15.18537,0 -27.5,-12.31463 -27.5,-27.5 0,-15.18537 12.31463,-27.5 27.5,-27.5 z"
           style="color:#000000;fill:#44aa00;fill-opacity:1;stroke:none;stroke-width:1;marker:none;visibility:visible;display:inline;overflow:visible;enable-background:accumulate"
           inkscape:connector-curvature="0" />
        <path
           sodipodi:nodetypes="sscs"
           inkscape:connector-curvature="0"
           id="path10718"
           d="m -217.55313,1425.2231 c 2.71704,8.1207 19.47371,7.0195 25.89897,2.4234 16.32247,-11.6758 12.19813,-31.0333 -3.99001,-40.4759 15.91656,28.2845 -28.27016,19.0404 -21.90896,38.0525 z"
           style="color:#000000;fill:#44aa00;fill-opacity:1;stroke:none;stroke-width:1px;marker:none;visibility:visible;display:inline;overflow:visible;enable-background:accumulate" />
        <path
           transform="translate(0,452.35999)"
           inkscape:connector-curvature="0"
           id="path10720"
           d="m -224.75,942.25 c 1.89243,8.74706 20.87548,-5.37452 14.75,-11.5 -5.39267,-5.39267 -17.34511,6.30978 -14.75,11.5 z"
           style="color:#000000;fill:#ffffff;stroke:none;stroke-width:1px;marker:none;visibility:visible;display:inline;overflow:visible;enable-background:accumulate" />
      </g>
      <g
         id="g10722"
         transform="matrix(0.94114686,0,0,0.94114686,-1860.5722,117.58107)"
         style="stroke:none">
        <path
           sodipodi:type="arc"
           style="color:#000000;fill:#75d636;fill-opacity:1;fill-rule:nonzero;stroke:none;stroke-width:2;marker:none;visibility:visible;display:inline;overflow:visible;enable-background:accumulate"
           id="path10724"
           sodipodi:cx="-201.34866"
           sodipodi:cy="959.38702"
           sodipodi:rx="31.643028"
           sodipodi:ry="31.643028"
           d="m -169.70564,959.38702 c 0,17.47597 -14.16706,31.64303 -31.64302,31.64303 -17.47597,0 -31.64303,-14.16706 -31.64303,-31.64303 0,-17.47596 14.16706,-31.64302 31.64303,-31.64302 17.47596,0 31.64302,14.16706 31.64302,31.64302 z"
           transform="matrix(0.76926279,-0.44413408,0.44413408,0.76926279,-476.44419,577.58295)" />
        <path
           style="color:#000000;fill:#44aa00;fill-opacity:1;stroke:none;stroke-width:1;marker:none;visibility:visible;display:inline;overflow:visible;enable-background:accumulate"
           d="m -205.78125,922.5 c -16.84222,0 -30.5,13.65778 -30.5,30.5 0,16.84222 13.65778,30.5 30.5,30.5 16.84222,0 30.46875,-13.65778 30.46875,-30.5 0,-16.84222 -13.62653,-30.5 -30.46875,-30.5 z m 0,3 c 15.18537,0 27.46875,12.31463 27.46875,27.5 0,15.18537 -12.28338,27.5 -27.46875,27.5 -15.18537,0 -27.5,-12.31463 -27.5,-27.5 0,-15.18537 12.31463,-27.5 27.5,-27.5 z"
           transform="translate(0,452.35999)"
           id="path10726"
           inkscape:connector-curvature="0" />
        <path
           style="color:#000000;fill:#44aa00;fill-opacity:1;stroke:none;stroke-width:1px;marker:none;visibility:visible;display:inline;overflow:visible;enable-background:accumulate"
           d="m -217.55313,1425.2231 c 2.71704,8.1207 19.47371,7.0195 25.89897,2.4234 16.32247,-11.6758 12.19813,-31.0333 -3.99001,-40.4759 15.91656,28.2845 -28.27016,19.0404 -21.90896,38.0525 z"
           id="path10728"
           inkscape:connector-curvature="0"
           sodipodi:nodetypes="sscs" />
        <path
           style="color:#000000;fill:#ffffff;stroke:none;stroke-width:1px;marker:none;visibility:visible;display:inline;overflow:visible;enable-background:accumulate"
           d="m -224.75,942.25 c 1.89243,8.74706 20.87548,-5.37452 14.75,-11.5 -5.39267,-5.39267 -17.34511,6.30978 -14.75,11.5 z"
           id="path10730"
           inkscape:connector-curvature="0"
           transform="translate(0,452.35999)" />
      </g>
      <g
         transform="matrix(0.53907812,0,0,0.53907812,-1785.6124,587.84636)"
         id="g10732"
         style="stroke:none">
        <path
           transform="matrix(0.76926279,-0.44413408,0.44413408,0.76926279,-476.44419,577.58295)"
           d="m -169.70564,959.38702 c 0,17.47597 -14.16706,31.64303 -31.64302,31.64303 -17.47597,0 -31.64303,-14.16706 -31.64303,-31.64303 0,-17.47596 14.16706,-31.64302 31.64303,-31.64302 17.47596,0 31.64302,14.16706 31.64302,31.64302 z"
           sodipodi:ry="31.643028"
           sodipodi:rx="31.643028"
           sodipodi:cy="959.38702"
           sodipodi:cx="-201.34866"
           id="path10734"
           style="color:#000000;fill:#75d636;fill-opacity:1;fill-rule:nonzero;stroke:none;stroke-width:2;marker:none;visibility:visible;display:inline;overflow:visible;enable-background:accumulate"
           sodipodi:type="arc" />
        <path
           inkscape:connector-curvature="0"
           id="path10736"
           transform="translate(0,452.35999)"
           d="m -205.78125,922.5 c -16.84222,0 -30.5,13.65778 -30.5,30.5 0,16.84222 13.65778,30.5 30.5,30.5 16.84222,0 30.46875,-13.65778 30.46875,-30.5 0,-16.84222 -13.62653,-30.5 -30.46875,-30.5 z m 0,3 c 15.18537,0 27.46875,12.31463 27.46875,27.5 0,15.18537 -12.28338,27.5 -27.46875,27.5 -15.18537,0 -27.5,-12.31463 -27.5,-27.5 0,-15.18537 12.31463,-27.5 27.5,-27.5 z"
           style="color:#000000;fill:#44aa00;fill-opacity:1;stroke:none;stroke-width:1;marker:none;visibility:visible;display:inline;overflow:visible;enable-background:accumulate" />
        <path
           sodipodi:nodetypes="sscs"
           inkscape:connector-curvature="0"
           id="path10738"
           d="m -217.55313,1425.2231 c 2.71704,8.1207 19.47371,7.0195 25.89897,2.4234 16.32247,-11.6758 12.19813,-31.0333 -3.99001,-40.4759 15.91656,28.2845 -28.27016,19.0404 -21.90896,38.0525 z"
           style="color:#000000;fill:#44aa00;fill-opacity:1;stroke:none;stroke-width:1px;marker:none;visibility:visible;display:inline;overflow:visible;enable-background:accumulate" />
        <path
           transform="translate(0,452.35999)"
           inkscape:connector-curvature="0"
           id="path10740"
           d="m -224.75,942.25 c 1.89243,8.74706 20.87548,-5.37452 14.75,-11.5 -5.39267,-5.39267 -17.34511,6.30978 -14.75,11.5 z"
           style="color:#000000;fill:#ffffff;stroke:none;stroke-width:1px;marker:none;visibility:visible;display:inline;overflow:visible;enable-background:accumulate" />
      </g>
      <path
         style="color:#000000;fill:#939498;fill-opacity:1;stroke:none;stroke-width:1px;marker:none;visibility:visible;display:inline;overflow:visible;enable-background:accumulate"
         d="m -1931.4078,1726.6732 c -7.7226,1.2714 -22.5185,8.8213 -12.2568,15.4254 13.8181,8.8927 73.6708,5.6811 80.0779,-8.0633 7.5063,-16.1024 -56.1488,-12.3699 -67.8211,-7.3621 z"
         id="path10742"
         inkscape:connector-curvature="0" />
      <g
         transform="translate(-1644,0)"
         id="g10744"
         style="stroke:none">
        <path
           transform="matrix(0.67546368,-0.62365102,0.62178531,0.70785687,-1502.0367,1483.5518)"
           d="m 902.14286,1238.4336 c 0,17.5548 -8.79441,31.7857 -19.64286,31.7857 -10.84845,0 -19.64286,-14.2309 -19.64286,-31.7857 0,-17.5548 8.79441,-31.7857 19.64286,-31.7857 10.84845,0 19.64286,14.2309 19.64286,31.7857 z"
           sodipodi:ry="31.785715"
           sodipodi:rx="19.642857"
           sodipodi:cy="1238.4336"
           sodipodi:cx="882.5"
           id="path10746"
           style="color:#000000;fill:#2f2f30;fill-opacity:1;stroke:none;stroke-width:1;marker:none;visibility:visible;display:inline;overflow:visible;enable-background:accumulate"
           sodipodi:type="arc" />
        <path
           inkscape:connector-curvature="0"
           id="path10748"
           d="m -125.32151,1757.8437 c -27.9075,9.8007 -37.6947,54.382 -21.83301,99.5481 15.86168,45.1661 51.365122,73.8116 79.272616,64.0109 27.907502,-9.8008 37.674258,-54.3445 21.812572,-99.5106 -15.861685,-45.1661 -51.344677,-73.8491 -79.252178,-64.0484 z m 19.42655,22.7813 c 14.408102,-5.0599 25.953024,9.7452 34.142114,33.0636 8.18909,23.3184 9.919879,46.3158 -4.488219,51.3757 -14.408098,5.0599 -32.712805,-9.7312 -40.901905,-33.0496 -8.18909,-23.3184 -3.16008,-46.3298 11.24801,-51.3897 z"
           style="color:#000000;fill:#3f3f41;fill-opacity:1;stroke:none;stroke-width:0.93242955000000005;marker:none;visibility:visible;display:inline;overflow:visible;enable-background:accumulate"
           sodipodi:nodetypes="ssssssssss" />
        <path
           sodipodi:nodetypes="ssssssssss"
           style="color:#000000;fill:#535355;fill-opacity:1;stroke:none;stroke-width:0.93242955000000005;marker:none;visibility:visible;display:inline;overflow:visible;enable-background:accumulate"
           d="m -123.26331,1763.7061 c -25.90697,9.0981 -34.99258,50.4836 -20.26792,92.412 14.72464,41.9284 47.683051,68.5205 73.590019,59.4224 25.906976,-9.0983 34.97361,-50.4489 20.248956,-92.3773 -14.724653,-41.9284 -47.664076,-68.5553 -73.571055,-59.4571 z m 17.83145,14.6482 c 18.664881,-6.5548 33.620677,12.6243 44.229182,42.8321 10.608503,30.2076 12.850643,59.9995 -5.814235,66.5542 -18.664879,6.5548 -42.377597,-12.6062 -52.986117,-42.8138 -10.6085,-30.2078 -4.0937,-60.0177 14.57117,-66.5725 z"
           id="path10750"
           inkscape:connector-curvature="0" />
        <path
           sodipodi:nodetypes="ccszzasczccccc"
           inkscape:connector-curvature="0"
           id="path10752"
           d="m -139.90625,1772.8912 c -11.50485,17.9581 -12.43129,40.5565 -9.24674,61.0905 2.77155,16.1581 8.21473,32.1713 16.48104,46.4497 6.5634,11.3369 13.77118,18.2351 22.63048,23.2165 8.85931,4.9814 13.116798,7.7179 24.270564,7.2541 11.153766,-0.4638 19.177139,-4.9714 25.698986,-11.7717 6.80246,-7.0929 10.618129,-16.1783 11.147323,-27.2944 0.387888,-8.1479 -1.197616,-18.72 -7.277622,-30.0366 -0.284765,14.3724 -2.61364,22.512 -9.292518,28.4187 -6.678877,5.9066 -16.376082,7.815 -24.335171,3.0246 -15.187292,-8.7781 -27.295192,-36.113 -30.355042,-52.8933 -1.83223,-11.3376 -1.29276,-24.0884 5.87245,-33.5831 -1.95078,-6.7404 -12.21682,-5.8715 -17.96921,-7.772 -4.02779,-1.1087 -5.93555,-1.5603 -7.62454,-6.103 z"
           style="color:#000000;fill:#68696b;fill-opacity:1;stroke:none;stroke-width:0.93242955000000005;marker:none;visibility:visible;display:inline;overflow:visible;enable-background:accumulate" />
        <path
           sodipodi:nodetypes="czzczc"
           inkscape:connector-curvature="0"
           id="path10754"
           d="m -159.51574,1792.217 c 2.91335,-24.4249 27.73409,-46.3138 53.16551,-46.9065 25.431397,-0.5929 44.490452,30.0951 37.239427,48.6265 -7.251025,18.5314 -22.502234,25.3107 -47.373037,40.4815 -3.53553,-7.0711 -1.14554,-16.9969 -13.4848,-30.1002 -12.33925,-13.1033 -29.5471,-12.1013 -29.5471,-12.1013 z"
           style="fill:#3f3f41;fill-opacity:1;stroke:none" />
        <path
           style="fill:#535355;fill-opacity:1;stroke:none"
           d="m -152.53871,1786.8372 c 2.38167,-19.9674 24.08692,-35.0333 44.87719,-35.5178 20.790253,-0.4847 36.371094,24.6028 30.443357,39.7523 -5.927737,15.1495 -16.627885,19.9845 -36.959847,32.3867 -2.07078,-5.7807 -2.67886,-13.188 -12.79164,-23.8999 -10.11278,-10.7119 -25.56906,-12.7213 -25.56906,-12.7213 z"
           id="path10756"
           inkscape:connector-curvature="0"
           sodipodi:nodetypes="czzczc" />
        <path
           sodipodi:nodetypes="zszszszsz"
           inkscape:connector-curvature="0"
           id="path10758"
           d="m -142.31025,1785.2074 c -1.87171,-0.5196 1.22623,-6.1813 7.65385,-12.007 5.85516,-5.3068 11.27152,-10.3329 19.30915,-12.9191 8.03775,-2.5863 17.358515,-1.9106 23.819741,2.8387 7.653083,5.6251 10.241797,16.3875 8.746454,22.0971 -1.495343,5.7097 -3.118567,9.967 -8.854794,15.0932 -10.255401,9.1647 -23.960221,11.9746 -23.876071,9.4883 0.0841,-2.4864 -4.91613,-11.5564 -9.49399,-15.9216 -5.05121,-4.8165 -15.43255,-8.15 -17.30434,-8.6696 z"
           style="color:#000000;fill:#68696b;fill-opacity:1;stroke:none;stroke-width:1px;marker:none;visibility:visible;display:inline;overflow:visible;enable-background:accumulate" />
        <path
           sodipodi:nodetypes="zszzzz"
           inkscape:connector-curvature="0"
           id="path10760"
           d="m -144.94278,1819.5963 c -2.28287,12.4179 0.82463,25.9748 13.38941,49.3925 10.25043,19.1044 28.03057,28.9613 33.29614,25.1441 5.265561,-3.8171 -10.47435,-17.4439 -18.82326,-32.5105 -8.34892,-15.0666 -11.99417,-30.1932 -15.63219,-38.1954 -3.63801,-8.002 -9.94723,-16.2487 -12.2301,-3.8307 z"
           style="color:#000000;fill:#939498;fill-opacity:1;stroke:none;stroke-width:1px;marker:none;visibility:visible;display:inline;overflow:visible;enable-background:accumulate" />
        <path
           sodipodi:nodetypes="aasa"
           inkscape:connector-curvature="0"
           id="path10762"
           d="m -127.27922,1778.7525 c -2.65568,5.6828 1.9114,16.1613 8.13172,16.9706 10.56398,1.3745 24.413502,-12.8448 20.725288,-24.3278 -2.741008,-8.534 -24.654358,-1.636 -28.857008,7.3572 z"
           style="color:#000000;fill:#939498;fill-opacity:1;stroke:none;stroke-width:1px;marker:none;visibility:visible;display:inline;overflow:visible;enable-background:accumulate" />
      </g>
      <path
         sodipodi:nodetypes="zsszsszz"
         inkscape:connector-curvature="0"
         id="path10764"
         d="m -2097.2767,1656.8131 c -5.7056,-4.5616 -24.1746,-29.8745 -54.363,-64.8085 -21.1538,-24.4791 -45.2606,-53.077 -66.0717,-73.987 -18.4051,-18.4929 -40.6767,-58.9481 -25.1156,-70.9642 15.5608,-12.0162 54.1749,11.6891 78.1555,38.7751 20.6497,23.3236 42.0434,64.7283 58.3069,100.3889 16.3587,35.8687 28.3969,59.1592 27.5268,65.9263 -0.8702,6.7667 -12.7333,9.2306 -18.4389,4.6694 z"
         style="fill:#f3aa41;fill-opacity:1;stroke:none" />
      <path
         style="color:#000000;fill:#ffe545;fill-opacity:1;fill-rule:nonzero;stroke:none;stroke-width:2;marker:none;visibility:visible;display:inline;overflow:visible;enable-background:accumulate"
         d="m -2172.9055,1484.7483 c 9.4939,11.4035 58.4007,82.0024 41.7535,92.5114 -10.6586,6.7285 -80.2441,-64.164 -89.421,-77.157 -8.5606,-12.1199 -21.889,-37.4799 -13.5868,-46.9641 8.5672,-9.787 45.3906,12.5545 61.2543,31.6097 z"
         id="path10766"
         inkscape:connector-curvature="0"
         sodipodi:nodetypes="sssss" />
      <g
         transform="matrix(0.94114686,0,0,0.94114686,-1651.9218,81.729793)"
         id="g10768"
         style="stroke:none">
        <path
           transform="matrix(0.76926279,-0.44413408,0.44413408,0.76926279,-476.44419,577.58295)"
           d="m -169.70564,959.38702 c 0,17.47597 -14.16706,31.64303 -31.64302,31.64303 -17.47597,0 -31.64303,-14.16706 -31.64303,-31.64303 0,-17.47596 14.16706,-31.64302 31.64303,-31.64302 17.47596,0 31.64302,14.16706 31.64302,31.64302 z"
           sodipodi:ry="31.643028"
           sodipodi:rx="31.643028"
           sodipodi:cy="959.38702"
           sodipodi:cx="-201.34866"
           id="path10770"
           style="color:#000000;fill:#75d636;fill-opacity:1;fill-rule:nonzero;stroke:none;stroke-width:2;marker:none;visibility:visible;display:inline;overflow:visible;enable-background:accumulate"
           sodipodi:type="arc" />
        <path
           inkscape:connector-curvature="0"
           id="path10772"
           transform="translate(0,452.35999)"
           d="m -205.78125,922.5 c -16.84222,0 -30.5,13.65778 -30.5,30.5 0,16.84222 13.65778,30.5 30.5,30.5 16.84222,0 30.46875,-13.65778 30.46875,-30.5 0,-16.84222 -13.62653,-30.5 -30.46875,-30.5 z m 0,3 c 15.18537,0 27.46875,12.31463 27.46875,27.5 0,15.18537 -12.28338,27.5 -27.46875,27.5 -15.18537,0 -27.5,-12.31463 -27.5,-27.5 0,-15.18537 12.31463,-27.5 27.5,-27.5 z"
           style="color:#000000;fill:#44aa00;fill-opacity:1;stroke:none;stroke-width:1;marker:none;visibility:visible;display:inline;overflow:visible;enable-background:accumulate" />
        <path
           sodipodi:nodetypes="sscs"
           inkscape:connector-curvature="0"
           id="path10774"
           d="m -217.55313,1425.2231 c 2.71704,8.1207 19.47371,7.0195 25.89897,2.4234 16.32247,-11.6758 12.19813,-31.0333 -3.99001,-40.4759 15.91656,28.2845 -28.27016,19.0404 -21.90896,38.0525 z"
           style="color:#000000;fill:#44aa00;fill-opacity:1;stroke:none;stroke-width:1px;marker:none;visibility:visible;display:inline;overflow:visible;enable-background:accumulate" />
        <path
           transform="translate(0,452.35999)"
           inkscape:connector-curvature="0"
           id="path10776"
           d="m -224.75,942.25 c 1.89243,8.74706 20.87548,-5.37452 14.75,-11.5 -5.39267,-5.39267 -17.34511,6.30978 -14.75,11.5 z"
           style="color:#000000;fill:#ffffff;stroke:none;stroke-width:1px;marker:none;visibility:visible;display:inline;overflow:visible;enable-background:accumulate" />
      </g>
    </g>
    <g
       id="g11645"
       transform="matrix(0.60661724,0,0,0.60661724,506.23508,-309.26034)">
      <path
         sodipodi:type="arc"
         style="color:#000000;fill:#2f2f30;fill-opacity:1;stroke:none;stroke-width:1;marker:none;visibility:visible;display:inline;overflow:visible;enable-background:accumulate"
         id="path11647"
         sodipodi:cx="532.85712"
         sodipodi:cy="2490.9336"
         sodipodi:rx="67.14286"
         sodipodi:ry="48.57143"
         d="m 599.99998,2490.9336 c 0,26.8253 -30.06089,48.5714 -67.14286,48.5714 -37.08198,0 -67.14286,-21.7461 -67.14286,-48.5714 0,-26.8253 30.06088,-48.5714 67.14286,-48.5714 37.08197,0 67.14286,21.7461 67.14286,48.5714 z"
         transform="matrix(-0.82088152,-0.02747609,0.05888288,-0.80482162,726.63973,3598.0641)" />
      <path
         transform="matrix(-0.67556538,-0.02261215,0.04845917,-0.66234848,675.17177,3240.5812)"
         d="m 599.99998,2490.9336 c 0,26.8253 -30.06089,48.5714 -67.14286,48.5714 -37.08198,0 -67.14286,-21.7461 -67.14286,-48.5714 0,-26.8253 30.06088,-48.5714 67.14286,-48.5714 37.08197,0 67.14286,21.7461 67.14286,48.5714 z"
         sodipodi:ry="48.57143"
         sodipodi:rx="67.14286"
         sodipodi:cy="2490.9336"
         sodipodi:cx="532.85712"
         id="path11649"
         style="color:#000000;fill:#3f3f41;fill-opacity:1;stroke:none;stroke-width:1;marker:none;visibility:visible;display:inline;overflow:visible;enable-background:accumulate"
         sodipodi:type="arc" />
      <path
         transform="matrix(0.35835691,-0.73904109,-0.73947362,-0.32308483,2290.8805,3164.7834)"
         d="m 599.99998,2490.9336 c 0,26.8253 -30.06089,48.5714 -67.14286,48.5714 -37.08198,0 -67.14286,-21.7461 -67.14286,-48.5714 0,-26.8253 30.06088,-48.5714 67.14286,-48.5714 37.08197,0 67.14286,21.7461 67.14286,48.5714 z"
         sodipodi:ry="48.57143"
         sodipodi:rx="67.14286"
         sodipodi:cy="2490.9336"
         sodipodi:cx="532.85712"
         id="path11651"
         style="color:#000000;fill:#2f2f30;fill-opacity:1;stroke:none;stroke-width:1;marker:none;visibility:visible;display:inline;overflow:visible;enable-background:accumulate"
         sodipodi:type="arc" />
      <path
         sodipodi:type="arc"
         style="color:#000000;fill:#3f3f41;fill-opacity:1;stroke:none;stroke-width:1;marker:none;visibility:visible;display:inline;overflow:visible;enable-background:accumulate"
         id="path11653"
         sodipodi:cx="532.85712"
         sodipodi:cy="2490.9336"
         sodipodi:rx="67.14286"
         sodipodi:ry="48.57143"
         d="m 599.99998,2490.9336 c 0,26.8253 -30.06089,48.5714 -67.14286,48.5714 -37.08198,0 -67.14286,-21.7461 -67.14286,-48.5714 0,-26.8253 30.06088,-48.5714 67.14286,-48.5714 37.08197,0 67.14286,21.7461 67.14286,48.5714 z"
         transform="matrix(0.29180562,-0.60179206,-0.60214426,-0.26308399,1982.2644,2940.1912)" />
      <path
         sodipodi:type="arc"
         style="color:#000000;fill:#2f2f30;fill-opacity:1;stroke:none;stroke-width:1;marker:none;visibility:visible;display:inline;overflow:visible;enable-background:accumulate"
         id="path11655"
         sodipodi:cx="532.85712"
         sodipodi:cy="2490.9336"
         sodipodi:rx="67.14286"
         sodipodi:ry="48.57143"
         d="m 599.99998,2490.9336 c 0,26.8253 -30.06089,48.5714 -67.14286,48.5714 -37.08198,0 -67.14286,-21.7461 -67.14286,-48.5714 0,-26.8253 30.06088,-48.5714 67.14286,-48.5714 37.08197,0 67.14286,21.7461 67.14286,48.5714 z"
         transform="matrix(0.69763465,0.43348276,-0.45268384,0.66804371,1029.7126,146.26659)" />
      <path
         transform="matrix(0.55074888,0.34221371,-0.35737204,0.52738826,870.56636,545.26333)"
         d="m 599.99998,2490.9336 c 0,26.8253 -30.06089,48.5714 -67.14286,48.5714 -37.08198,0 -67.14286,-21.7461 -67.14286,-48.5714 0,-26.8253 30.06088,-48.5714 67.14286,-48.5714 37.08197,0 67.14286,21.7461 67.14286,48.5714 z"
         sodipodi:ry="48.57143"
         sodipodi:rx="67.14286"
         sodipodi:cy="2490.9336"
         sodipodi:cx="532.85712"
         id="path11657"
         style="color:#000000;fill:#3f3f41;fill-opacity:1;stroke:none;stroke-width:1;marker:none;visibility:visible;display:inline;overflow:visible;enable-background:accumulate"
         sodipodi:type="arc" />
      <path
         sodipodi:type="arc"
         style="color:#000000;fill:#939498;fill-opacity:1;stroke:none;stroke-width:1;marker:none;visibility:visible;display:inline;overflow:visible;enable-background:accumulate"
         id="path11659"
         sodipodi:cx="532.85712"
         sodipodi:cy="2490.9336"
         sodipodi:rx="67.14286"
         sodipodi:ry="48.57143"
         d="m 599.99998,2490.9336 c 0,26.8253 -30.06089,48.5714 -67.14286,48.5714 -37.08198,0 -67.14286,-21.7461 -67.14286,-48.5714 0,-26.8253 30.06088,-48.5714 67.14286,-48.5714 37.08197,0 67.14286,21.7461 67.14286,48.5714 z"
         transform="matrix(0.26266287,0.16320839,-0.17043769,0.25152174,547.43399,1336.8128)" />
      <path
         transform="matrix(0.14213808,-0.293132,-0.29330356,-0.12814781,1303.674,2447.9302)"
         d="m 599.99998,2490.9336 c 0,26.8253 -30.06089,48.5714 -67.14286,48.5714 -37.08198,0 -67.14286,-21.7461 -67.14286,-48.5714 0,-26.8253 30.06088,-48.5714 67.14286,-48.5714 37.08197,0 67.14286,21.7461 67.14286,48.5714 z"
         sodipodi:ry="48.57143"
         sodipodi:rx="67.14286"
         sodipodi:cy="2490.9336"
         sodipodi:cx="532.85712"
         id="path11661"
         style="color:#000000;fill:#939498;fill-opacity:1;stroke:none;stroke-width:1;marker:none;visibility:visible;display:inline;overflow:visible;enable-background:accumulate"
         sodipodi:type="arc" />
      <path
         sodipodi:type="arc"
         style="color:#000000;fill:#939498;fill-opacity:1;stroke:none;stroke-width:1;marker:none;visibility:visible;display:inline;overflow:visible;enable-background:accumulate"
         id="path11663"
         sodipodi:cx="532.85712"
         sodipodi:cy="2490.9336"
         sodipodi:rx="67.14286"
         sodipodi:ry="48.57143"
         d="m 599.99998,2490.9336 c 0,26.8253 -30.06089,48.5714 -67.14286,48.5714 -37.08198,0 -67.14286,-21.7461 -67.14286,-48.5714 0,-26.8253 30.06088,-48.5714 67.14286,-48.5714 37.08197,0 67.14286,21.7461 67.14286,48.5714 z"
         transform="matrix(-0.38877713,-0.01301293,0.02788748,-0.38117101,573.59732,2527.0718)" />
      <path
         transform="matrix(1.026724,0,0,1.026724,-339.95752,-530.6216)"
         d="m 999.99997,2304.5051 c 0,141.6216 -114.80698,256.4286 -256.42856,256.4286 -141.62158,0 -256.42856,-114.807 -256.42856,-256.4286 0,-141.6216 114.80698,-256.4285 256.42856,-256.4285 141.62158,0 256.42856,114.8069 256.42856,256.4285 z"
         sodipodi:ry="256.42856"
         sodipodi:rx="256.42856"
         sodipodi:cy="2304.5051"
         sodipodi:cx="743.57141"
         id="path11665"
         style="color:#000000;fill:#2f2f30;fill-opacity:1;stroke:none;stroke-width:1;marker:none;visibility:visible;display:inline;overflow:visible;enable-background:accumulate"
         sodipodi:type="arc" />
      <g
         id="g11667"
         transform="matrix(0.99392341,-0.11007389,0.11007389,0.99392341,-287.80851,-353.98414)">
        <path
           style="color:#000000;fill:#2f2f30;fill-opacity:1;fill-rule:nonzero;stroke:none;stroke-width:3;marker:none;visibility:visible;display:inline;overflow:visible;enable-background:accumulate"
           d="m 215.58503,2243.04 c 1.64457,-46.9812 -0.10474,-83.7345 -29.14065,-84.7509 -29.03592,-1.0164 -58.1651,36.0711 -59.80967,83.0522 -1.64457,46.9811 24.81889,86.046 53.85482,87.0624 29.03591,1.0164 33.45093,-38.3826 35.0955,-85.3637 z m -13.01293,0.8279 c -0.5806,16.586 -2.08779,30.0001 -16.26191,29.5039 -14.17412,-0.4961 -36.14486,-7.0852 -35.24295,-32.8502 0.9019,-25.7649 23.17097,-27.6985 37.34509,-27.2024 14.17412,0.4962 14.74036,13.9627 14.15977,30.5487 z"
           id="path11669"
           inkscape:connector-curvature="0"
           sodipodi:nodetypes="ssssssssss" />
        <path
           sodipodi:nodetypes="sszsssssss"
           inkscape:connector-curvature="0"
           id="path11671"
           d="m 212.0187,2244.8734 c 1.64458,-46.9811 3.2142,-80.2685 -25.83106,-79.568 -31.15724,0.7513 -48.15393,27.8547 -49.79849,74.8358 -1.64458,46.9811 15.27959,82.5145 44.3155,83.5309 29.03592,1.0164 29.66948,-31.8176 31.31405,-78.7987 z m -8.58019,-0.416 c -0.64627,18.4625 -2.49847,48.9162 -18.2761,48.3639 -15.77764,-0.5523 -39.40791,-26.7272 -38.50601,-52.4921 0.9019,-25.7649 25.41929,-46.255 41.19693,-45.7027 15.77763,0.5523 16.23146,31.3685 15.58518,49.8309 z"
           style="color:#000000;fill:#3f3f41;fill-opacity:1;fill-rule:nonzero;stroke:none;stroke-width:3;marker:none;visibility:visible;display:inline;overflow:visible;enable-background:accumulate" />
        <path
           style="fill:#2f2f30;fill-opacity:1;stroke:none"
           d="m 243.80679,2177.578 c -18.40743,39.4577 -22.21476,81.9005 -4.66497,133.2659 -30.78644,20.1352 -52.0569,-7.1909 -60.36583,-22.7741 -8.30893,-15.583 -6.93596,-79.2197 7.65915,-97.5276 14.59521,-18.3079 40.88729,-24.6791 57.37165,-12.9642 z"
           id="path11673"
           inkscape:connector-curvature="0"
           sodipodi:nodetypes="cczzc" />
        <path
           sodipodi:nodetypes="cczzc"
           inkscape:connector-curvature="0"
           id="path11675"
           d="m 235.72412,2185.7741 c -14.10339,34.5521 -17.16018,71.6529 -4.07679,116.463 -23.4009,17.7191 -41.52053,-6.1452 -47.75039,-19.7274 -6.22996,-13.5822 -4.93065,-69.1917 6.19898,-85.2482 11.12952,-16.0563 33.19003,-21.6563 45.6282,-11.4874 z"
           style="fill:#3f3f41;fill-opacity:1;stroke:none" />
        <path
           style="color:#000000;fill:#68696b;fill-opacity:1;stroke:none;stroke-width:1px;marker:none;visibility:visible;display:inline;overflow:visible;enable-background:accumulate"
           d="m 207.69626,2199.6151 c 6.94827,-10.5367 15.79419,-14.0758 23.30952,-8.4397 -13.99939,35.1057 -15.52269,69.8294 -3.80401,108.6703 -6.82168,3.133 -15.56129,1.5857 -22.19761,-9.032 -6.63632,-10.6178 -7.88432,-29.7829 -6.84177,-48.006 0.95241,-16.6457 2.5856,-32.6559 9.53387,-43.1926 z"
           id="path11677"
           inkscape:connector-curvature="0"
           sodipodi:nodetypes="zcczsz" />
        <path
           sodipodi:type="arc"
           style="color:#000000;fill:#939498;fill-opacity:1;fill-rule:nonzero;stroke:none;stroke-width:3;marker:none;visibility:visible;display:inline;overflow:visible;enable-background:accumulate"
           id="path11679"
           sodipodi:cx="37.25"
           sodipodi:cy="1587"
           sodipodi:rx="37"
           sodipodi:ry="18.5"
           d="m 74.25,1587 c 0,10.2173 -16.565464,18.5 -37,18.5 -20.434536,0 -37,-8.2827 -37,-18.5 0,-10.2173 16.565464,-18.5 37,-18.5 20.434536,0 37,8.2827 37,18.5 z"
           transform="matrix(-0.01985553,0.56722016,-0.56722016,-0.01985553,1109.5472,2254.8075)" />
        <path
           sodipodi:nodetypes="zzzz"
           inkscape:connector-curvature="0"
           id="path11681"
           d="m 173.49088,2171.3602 c -5.29918,2.8219 -13.53891,11.5432 -7.87565,16.6747 5.66324,5.1317 25.62957,-5.5611 24.52189,-13.1105 -1.10768,-7.5494 -11.34705,-6.386 -16.64624,-3.5642 z"
           style="color:#000000;fill:#939498;fill-opacity:1;stroke:none;stroke-width:1px;marker:none;visibility:visible;display:inline;overflow:visible;enable-background:accumulate" />
        <path
           style="color:#000000;fill:#939498;fill-opacity:1;stroke:none;stroke-width:1px;marker:none;visibility:visible;display:inline;overflow:visible;enable-background:accumulate"
           d="m 173.61189,2316.3407 c -5.11349,-2.723 -13.06449,-11.1386 -7.59967,-16.0904 5.46479,-4.9518 24.73147,5.3663 23.6626,12.6512 -1.06886,7.2849 -10.94943,6.1622 -16.06293,3.4392 z"
           id="path11683"
           inkscape:connector-curvature="0"
           sodipodi:nodetypes="zzzz" />
      </g>
      <g
         transform="matrix(-0.90873666,0.41736996,0.41736996,0.90873666,-90.765816,-400.07758)"
         id="g11685">
        <g
           id="g11687"
           transform="matrix(0.9621952,-0.27236078,0.27236078,0.9621952,-605.73958,192.78199)">
          <path
             style="color:#000000;fill:#2f2f30;fill-opacity:1;fill-rule:nonzero;stroke:none;stroke-width:3;marker:none;visibility:visible;display:inline;overflow:visible;enable-background:accumulate"
             d="m 215.58503,2243.04 c 1.64457,-46.9812 -0.10474,-83.7345 -29.14065,-84.7509 -29.03592,-1.0164 -58.1651,36.0711 -59.80967,83.0522 -1.64457,46.9811 24.81889,86.046 53.85482,87.0624 29.03591,1.0164 33.45093,-38.3826 35.0955,-85.3637 z m -13.01293,0.8279 c -0.5806,16.586 -2.08779,30.0001 -16.26191,29.5039 -14.17412,-0.4961 -36.14486,-7.0852 -35.24295,-32.8502 0.9019,-25.7649 23.17097,-27.6985 37.34509,-27.2024 14.17412,0.4962 14.74036,13.9627 14.15977,30.5487 z"
             id="path11689"
             inkscape:connector-curvature="0"
             sodipodi:nodetypes="ssssssssss" />
          <path
             sodipodi:nodetypes="sszsssssss"
             inkscape:connector-curvature="0"
             id="path11691"
             d="m 212.0187,2244.8734 c 1.64458,-46.9811 3.2142,-80.2685 -25.83106,-79.568 -31.15724,0.7513 -48.15393,27.8547 -49.79849,74.8358 -1.64458,46.9811 15.27959,82.5145 44.3155,83.5309 29.03592,1.0164 29.66948,-31.8176 31.31405,-78.7987 z m -8.58019,-0.416 c -0.64627,18.4625 -2.49847,48.9162 -18.2761,48.3639 -15.77764,-0.5523 -39.40791,-26.7272 -38.50601,-52.4921 0.9019,-25.7649 25.41929,-46.255 41.19693,-45.7027 15.77763,0.5523 16.23146,31.3685 15.58518,49.8309 z"
             style="color:#000000;fill:#3f3f41;fill-opacity:1;fill-rule:nonzero;stroke:none;stroke-width:3;marker:none;visibility:visible;display:inline;overflow:visible;enable-background:accumulate" />
          <path
             style="fill:#2f2f30;fill-opacity:1;stroke:none"
             d="m 243.80679,2177.578 c -18.40743,39.4577 -22.21476,81.9005 -4.66497,133.2659 -30.78644,20.1352 -52.0569,-7.1909 -60.36583,-22.7741 -8.30893,-15.583 -6.93596,-79.2197 7.65915,-97.5276 14.59521,-18.3079 40.88729,-24.6791 57.37165,-12.9642 z"
             id="path11693"
             inkscape:connector-curvature="0"
             sodipodi:nodetypes="cczzc" />
          <path
             sodipodi:nodetypes="cczzc"
             inkscape:connector-curvature="0"
             id="path11695"
             d="m 235.72412,2185.7741 c -14.10339,34.5521 -17.16018,71.6529 -4.07679,116.463 -23.4009,17.7191 -41.52053,-6.1452 -47.75039,-19.7274 -6.22996,-13.5822 -4.93065,-69.1917 6.19898,-85.2482 11.12952,-16.0563 33.19003,-21.6563 45.6282,-11.4874 z"
             style="fill:#3f3f41;fill-opacity:1;stroke:none" />
          <path
             style="color:#000000;fill:#68696b;fill-opacity:1;stroke:none;stroke-width:1px;marker:none;visibility:visible;display:inline;overflow:visible;enable-background:accumulate"
             d="m 207.69626,2199.6151 c 6.94827,-10.5367 15.79419,-14.0758 23.30952,-8.4397 -13.99939,35.1057 -15.52269,69.8294 -3.80401,108.6703 -6.82168,3.133 -15.56129,1.5857 -22.19761,-9.032 -6.63632,-10.6178 -7.88432,-29.7829 -6.84177,-48.006 0.95241,-16.6457 2.5856,-32.6559 9.53387,-43.1926 z"
             id="path11697"
             inkscape:connector-curvature="0"
             sodipodi:nodetypes="zcczsz" />
          <path
             sodipodi:type="arc"
             style="color:#000000;fill:#939498;fill-opacity:1;fill-rule:nonzero;stroke:none;stroke-width:3;marker:none;visibility:visible;display:inline;overflow:visible;enable-background:accumulate"
             id="path11699"
             sodipodi:cx="37.25"
             sodipodi:cy="1587"
             sodipodi:rx="37"
             sodipodi:ry="18.5"
             d="m 74.25,1587 c 0,10.2173 -16.565464,18.5 -37,18.5 -20.434536,0 -37,-8.2827 -37,-18.5 0,-10.2173 16.565464,-18.5 37,-18.5 20.434536,0 37,8.2827 37,18.5 z"
             transform="matrix(-0.01985553,0.56722016,-0.56722016,-0.01985553,1109.5472,2254.8075)" />
          <path
             sodipodi:nodetypes="zzzz"
             inkscape:connector-curvature="0"
             id="path11701"
             d="m 173.49088,2171.3602 c -5.29918,2.8219 -13.53891,11.5432 -7.87565,16.6747 5.66324,5.1317 25.62957,-5.5611 24.52189,-13.1105 -1.10768,-7.5494 -11.34705,-6.386 -16.64624,-3.5642 z"
             style="color:#000000;fill:#939498;fill-opacity:1;stroke:none;stroke-width:1px;marker:none;visibility:visible;display:inline;overflow:visible;enable-background:accumulate" />
          <path
             style="color:#000000;fill:#939498;fill-opacity:1;stroke:none;stroke-width:1px;marker:none;visibility:visible;display:inline;overflow:visible;enable-background:accumulate"
             d="m 173.61189,2316.3407 c -5.11349,-2.723 -13.06449,-11.1386 -7.59967,-16.0904 5.46479,-4.9518 24.73147,5.3663 23.6626,12.6512 -1.06886,7.2849 -10.94943,6.1622 -16.06293,3.4392 z"
             id="path11703"
             inkscape:connector-curvature="0"
             sodipodi:nodetypes="zzzz" />
        </g>
      </g>
      <path
         sodipodi:type="arc"
         style="color:#000000;fill:#535355;fill-opacity:1;stroke:none;stroke-width:1;marker:none;visibility:visible;display:inline;overflow:visible;enable-background:accumulate"
         id="path11705"
         sodipodi:cx="743.57141"
         sodipodi:cy="2304.5051"
         sodipodi:rx="256.42856"
         sodipodi:ry="256.42856"
         d="m 999.99997,2304.5051 c 0,141.6216 -114.80698,256.4286 -256.42856,256.4286 -141.62158,0 -256.42856,-114.807 -256.42856,-256.4286 0,-141.6216 114.80698,-256.4285 256.42856,-256.4285 141.62158,0 256.42856,114.8069 256.42856,256.4285 z"
         transform="matrix(0.99552623,0,0,0.97602762,-316.75975,-418.79153)" />
      <path
         transform="matrix(0.95985072,0,0,0.94105086,-290.23246,-342.34695)"
         d="m 999.99997,2304.5051 c 0,141.6216 -114.80698,256.4286 -256.42856,256.4286 -141.62158,0 -256.42856,-114.807 -256.42856,-256.4286 0,-141.6216 114.80698,-256.4285 256.42856,-256.4285 141.62158,0 256.42856,114.8069 256.42856,256.4285 z"
         sodipodi:ry="256.42856"
         sodipodi:rx="256.42856"
         sodipodi:cy="2304.5051"
         sodipodi:cx="743.57141"
         id="path11707"
         style="color:#000000;fill:#68696b;fill-opacity:1;stroke:none;stroke-width:1;marker:none;visibility:visible;display:inline;overflow:visible;enable-background:accumulate"
         sodipodi:type="arc" />
      <path
         sodipodi:type="arc"
         style="color:#000000;fill:#939498;fill-opacity:1;stroke:none;stroke-width:1;marker:none;visibility:visible;display:inline;overflow:visible;enable-background:accumulate"
         id="path11709"
         sodipodi:cx="743.57141"
         sodipodi:cy="2304.5051"
         sodipodi:rx="256.42856"
         sodipodi:ry="256.42856"
         d="m 999.99997,2304.5051 c 0,141.6216 -114.80698,256.4286 -256.42856,256.4286 -141.62158,0 -256.42856,-114.807 -256.42856,-256.4286 0,-141.6216 114.80698,-256.4285 256.42856,-256.4285 141.62158,0 256.42856,114.8069 256.42856,256.4285 z"
         transform="matrix(0.89812426,0,0,0.82012983,-242.33443,-86.79634)" />
      <path
         transform="matrix(0.79824539,0,0,0.79824539,-171.59598,-4.0912162)"
         d="m 999.99997,2304.5051 c 0,141.6216 -114.80698,256.4286 -256.42856,256.4286 -141.62158,0 -256.42856,-114.807 -256.42856,-256.4286 0,-141.6216 114.80698,-256.4285 256.42856,-256.4285 141.62158,0 256.42856,114.8069 256.42856,256.4285 z"
         sodipodi:ry="256.42856"
         sodipodi:rx="256.42856"
         sodipodi:cy="2304.5051"
         sodipodi:cx="743.57141"
         id="path11711"
         style="color:#000000;fill:#2f2f30;fill-opacity:1;stroke:none;stroke-width:1;marker:none;visibility:visible;display:inline;overflow:visible;enable-background:accumulate"
         sodipodi:type="arc" />
      <path
         sodipodi:type="arc"
         style="color:#000000;fill:#535355;fill-opacity:1;stroke:none;stroke-width:1;marker:none;visibility:visible;display:inline;overflow:visible;enable-background:accumulate"
         id="path11713"
         sodipodi:cx="743.57141"
         sodipodi:cy="2304.5051"
         sodipodi:rx="256.42856"
         sodipodi:ry="256.42856"
         d="m 999.99997,2304.5051 c 0,141.6216 -114.80698,256.4286 -256.42856,256.4286 -141.62158,0 -256.42856,-114.807 -256.42856,-256.4286 0,-141.6216 114.80698,-256.4285 256.42856,-256.4285 141.62158,0 256.42856,114.8069 256.42856,256.4285 z"
         transform="matrix(0.76072015,0,0,0.76072015,-143.6933,82.385866)" />
      <path
         sodipodi:type="arc"
         style="color:#000000;fill:#75d636;fill-opacity:1;stroke:none;stroke-width:1;marker:none;visibility:visible;display:inline;overflow:visible;enable-background:accumulate"
         id="path11715"
         sodipodi:cx="743.57141"
         sodipodi:cy="2304.5051"
         sodipodi:rx="256.42856"
         sodipodi:ry="256.42856"
         d="m 999.99997,2304.5051 c 0,141.6216 -114.80698,256.4286 -256.42856,256.4286 -141.62158,0 -256.42856,-114.807 -256.42856,-256.4286 0,-141.6216 114.80698,-256.4285 256.42856,-256.4285 141.62158,0 256.42856,114.8069 256.42856,256.4285 z"
         transform="matrix(0.69836067,0,0,0.69836067,-97.32461,226.09361)" />
      <path
         transform="matrix(0.66148852,0,0,0.63614033,-69.907544,362.98067)"
         d="m 999.99997,2304.5051 c 0,141.6216 -114.80698,256.4286 -256.42856,256.4286 -141.62158,0 -256.42856,-114.807 -256.42856,-256.4286 0,-141.6216 114.80698,-256.4285 256.42856,-256.4285 141.62158,0 256.42856,114.8069 256.42856,256.4285 z"
         sodipodi:ry="256.42856"
         sodipodi:rx="256.42856"
         sodipodi:cy="2304.5051"
         sodipodi:cx="743.57141"
         id="path11717"
         style="color:#000000;fill:#44aa00;fill-opacity:1;stroke:none;stroke-width:1;marker:none;visibility:visible;display:inline;overflow:visible;enable-background:accumulate"
         sodipodi:type="arc" />
      <path
         sodipodi:type="arc"
         style="color:#000000;fill:#d1d943;fill-opacity:1;stroke:none;stroke-width:1;marker:none;visibility:visible;display:inline;overflow:visible;enable-background:accumulate"
         id="path11719"
         sodipodi:cx="777.14288"
         sodipodi:cy="2193.7908"
         sodipodi:rx="28.571428"
         sodipodi:ry="28.571428"
         d="m 805.71431,2193.7908 c 0,15.7795 -12.79186,28.5714 -28.57143,28.5714 -15.77956,0 -28.57142,-12.7919 -28.57142,-28.5714 0,-15.7796 12.79186,-28.5715 28.57142,-28.5715 15.77957,0 28.57143,12.7919 28.57143,28.5715 z"
         transform="matrix(0.85408473,-0.34950824,0.27904496,0.68189534,-729.9499,566.47693)" />
      <path
         style="color:#000000;fill:#68696b;fill-opacity:1;stroke:none;stroke-width:0.77175027;marker:none;visibility:visible;display:inline;overflow:visible;enable-background:accumulate"
         d="m 421.96877,1640.4082 c -107.73438,0 -195.07676,87.3424 -195.07676,195.0768 0,107.7345 87.34238,195.0455 195.07676,195.0455 107.73439,0 195.04546,-87.311 195.04546,-195.0455 0,-107.7344 -87.31107,-195.0768 -195.04546,-195.0768 z m 2.4e-4,11.6403 c 104.87865,0 189.89024,78.5264 189.89024,183.405 0,104.8786 -85.01159,192.7505 -189.89024,192.7505 -104.87866,0 -189.92202,-87.8719 -189.92202,-192.7505 0,-104.8786 85.04336,-183.405 189.92202,-183.405 z"
         id="path11721"
         inkscape:connector-curvature="0"
         sodipodi:nodetypes="ssssssssss" />
      <path
         sodipodi:type="arc"
         style="color:#000000;fill:#75d636;fill-opacity:1;stroke:none;stroke-width:1;marker:none;visibility:visible;display:inline;overflow:visible;enable-background:accumulate"
         id="path11723"
         sodipodi:cx="743.57141"
         sodipodi:cy="2304.5051"
         sodipodi:rx="256.42856"
         sodipodi:ry="256.42856"
         d="m 999.99997,2304.5051 c 0,141.6216 -114.80698,256.4286 -256.42856,256.4286 -141.62158,0 -256.42856,-114.807 -256.42856,-256.4286 0,-141.6216 114.80698,-256.4285 256.42856,-256.4285 141.62158,0 256.42856,114.8069 256.42856,256.4285 z"
         transform="matrix(0.1896222,0,0,0.16037429,228.95876,1556.386)" />
      <path
         style="color:#000000;fill:#64462c;fill-opacity:1;stroke:none;stroke-width:0.91481948px;marker:none;visibility:visible;display:inline;overflow:visible;enable-background:accumulate"
         d="m 536.90112,1773.0321 c -9.12697,16.2173 -5.59892,39.742 21.2131,30.3581 26.81202,-9.3839 38.64264,-25.6275 72.71246,-47.0494 20.25074,-12.733 31.93159,-24.5487 34.30711,-37.7688 3.22858,-17.9677 -5.86034,-35.7799 -17.38647,-40.114 -11.52613,-4.3342 -39.22144,9.8894 -62.19107,32.3093 -24.23158,23.6517 -39.52816,46.0475 -48.65513,62.2648 z"
         id="path11725"
         inkscape:connector-curvature="0"
         sodipodi:nodetypes="zzsszsz" />
      <path
         sodipodi:nodetypes="zzsszsz"
         inkscape:connector-curvature="0"
         id="path11727"
         d="m 543.58552,1767.7124 c -8.53638,15.1022 -5.97277,37.4005 18.15901,29.1639 24.13178,-8.2365 35.07882,-23.3006 65.97756,-42.7361 18.36589,-11.5524 31.08962,-24.2267 33.72128,-36.6176 5.08963,-23.964 -6.54689,-35.0044 -16.71405,-36.5379 -10.16716,-1.5335 -34.49877,9.8386 -55.5276,30.4756 -22.18414,21.7708 -37.07981,41.1498 -45.6162,56.2521 z"
         style="color:#000000;fill:#ae731a;fill-opacity:1;stroke:none;stroke-width:0.91481948px;marker:none;visibility:visible;display:inline;overflow:visible;enable-background:accumulate" />
      <path
         style="color:#000000;fill:#f3aa41;fill-opacity:1;stroke:none;stroke-width:0.91481948px;marker:none;visibility:visible;display:inline;overflow:visible;enable-background:accumulate"
         d="m 548.44448,1769.0369 c -6.53103,15.6339 2.71376,23.4949 23.17547,16.5109 20.46171,-6.9838 43.33821,-22.6467 57.27182,-35.1434 13.93361,-12.4967 22.07633,-17.6334 26.22135,-32.3147 4.14502,-14.6813 -3.67977,-28.7665 -12.30066,-32.4649 -8.62089,-3.6986 -29.85161,7.1431 -47.68227,24.6416 -18.81028,18.4598 -40.15469,43.1366 -46.68571,58.7705 z"
         id="path11729"
         inkscape:connector-curvature="0"
         sodipodi:nodetypes="zzzzzsz" />
      <path
         sodipodi:nodetypes="zzsszsz"
         inkscape:connector-curvature="0"
         id="path11731"
         d="m 571.0628,1750.1288 c -5.04811,8.9309 -3.53208,20.2637 10.73859,15.3928 14.27068,-4.8707 31.08321,-17.1608 49.35562,-28.6543 10.86094,-6.8316 19.58006,-18.6405 21.02546,-25.9907 1.96443,-9.9898 -2.91995,-20.7697 -10.34666,-22.6421 -7.42671,-1.8724 -27.53703,9.578 -39.97273,21.7821 -13.11891,12.8744 -25.75217,31.1811 -30.80028,40.1122 z"
         style="color:#000000;fill:#ffe545;fill-opacity:1;stroke:none;stroke-width:0.91481948px;marker:none;visibility:visible;display:inline;overflow:visible;enable-background:accumulate" />
      <path
         style="color:#000000;fill:#75d636;fill-opacity:1;stroke:none;stroke-width:1;marker:none;visibility:visible;display:inline;overflow:visible;enable-background:accumulate"
         d="m 429.96875,1690.86 c -33.08395,0 -60.54827,20.7376 -65.75,47.9295 -5.61244,-2.0592 -11.76289,-3.1989 -18.25,-3.1989 -25.75003,0 -46.625,17.9568 -46.625,40.107 0,22.1503 20.87497,40.0802 46.625,40.0802 18.64195,0 34.69559,-9.4101 42.15625,-23.0105 11.43484,7.9435 26.00115,12.688 41.84375,12.688 6.37956,0 12.53344,-0.7642 18.375,-2.2043 0.55239,9.374 9.59033,16.8278 20.625,16.8278 11.39062,0 20.625,-7.9435 20.625,-17.7417 0,-6.6381 -4.25565,-12.4147 -10.53125,-15.4568 10.87714,-10.1998 17.53125,-23.8039 17.53125,-38.7361 0,-31.6519 -29.82928,-57.2842 -66.625,-57.2842 z"
         id="path11733"
         inkscape:connector-curvature="0" />
      <path
         transform="matrix(0.12722665,0,0,0.10760282,340.3543,1683.0727)"
         d="m 999.99997,2304.5051 c 0,141.6216 -114.80698,256.4286 -256.42856,256.4286 -141.62158,0 -256.42856,-114.807 -256.42856,-256.4286 0,-141.6216 114.80698,-256.4285 256.42856,-256.4285 141.62158,0 256.42856,114.8069 256.42856,256.4285 z"
         sodipodi:ry="256.42856"
         sodipodi:rx="256.42856"
         sodipodi:cy="2304.5051"
         sodipodi:cx="743.57141"
         id="path11735"
         style="color:#000000;fill:#75d636;fill-opacity:1;stroke:none;stroke-width:1;marker:none;visibility:visible;display:inline;overflow:visible;enable-background:accumulate"
         sodipodi:type="arc" />
      <path
         sodipodi:type="arc"
         style="color:#000000;fill:#75d636;fill-opacity:1;stroke:none;stroke-width:1;marker:none;visibility:visible;display:inline;overflow:visible;enable-background:accumulate"
         id="path11737"
         sodipodi:cx="743.57141"
         sodipodi:cy="2304.5051"
         sodipodi:rx="256.42856"
         sodipodi:ry="256.42856"
         d="m 999.99997,2304.5051 c 0,141.6216 -114.80698,256.4286 -256.42856,256.4286 -141.62158,0 -256.42856,-114.807 -256.42856,-256.4286 0,-141.6216 114.80698,-256.4285 256.42856,-256.4285 141.62158,0 256.42856,114.8069 256.42856,256.4285 z"
         transform="matrix(0.10382832,0,0,0.10382832,250.75263,1649.1965)" />
      <path
         sodipodi:type="arc"
         style="color:#000000;fill:#75d636;fill-opacity:1;stroke:none;stroke-width:1;marker:none;visibility:visible;display:inline;overflow:visible;enable-background:accumulate"
         id="path11739"
         sodipodi:cx="743.57141"
         sodipodi:cy="2304.5051"
         sodipodi:rx="256.42856"
         sodipodi:ry="256.42856"
         d="m 999.99997,2304.5051 c 0,141.6216 -114.80698,256.4286 -256.42856,256.4286 -141.62158,0 -256.42856,-114.807 -256.42856,-256.4286 0,-141.6216 114.80698,-256.4285 256.42856,-256.4285 141.62158,0 256.42856,114.8069 256.42856,256.4285 z"
         transform="matrix(0.16232414,0,0,0.13112637,401.25681,1584.2879)" />
      <g
         id="g11741"
         transform="matrix(-0.38140618,-0.83429144,0.83429144,-0.38140618,-1229.2886,3171.3626)">
        <path
           transform="matrix(0.9980148,0,0,0.9980148,-231.00368,-120.31126)"
           d="m 834.28569,2272.3623 c 0,28.4032 -23.02536,51.4286 -51.42857,51.4286 -28.40322,0 -51.42857,-23.0254 -51.42857,-51.4286 0,-28.4032 23.02535,-51.4286 51.42857,-51.4286 28.40321,0 51.42857,23.0254 51.42857,51.4286 z"
           sodipodi:ry="51.42857"
           sodipodi:rx="51.42857"
           sodipodi:cy="2272.3623"
           sodipodi:cx="782.85712"
           id="path11743"
           style="color:#000000;fill:#44aa00;fill-opacity:1;stroke:none;stroke-width:1;marker:none;visibility:visible;display:inline;overflow:visible;enable-background:accumulate"
           sodipodi:type="arc" />
        <path
           sodipodi:type="arc"
           style="color:#000000;fill:#75d636;fill-opacity:1;stroke:none;stroke-width:1;marker:none;visibility:visible;display:inline;overflow:visible;enable-background:accumulate"
           id="path11745"
           sodipodi:cx="782.85712"
           sodipodi:cy="2272.3623"
           sodipodi:rx="51.42857"
           sodipodi:ry="51.42857"
           d="m 834.28569,2272.3623 c 0,28.4032 -23.02536,51.4286 -51.42857,51.4286 -28.40322,0 -51.42857,-23.0254 -51.42857,-51.4286 0,-28.4032 23.02535,-51.4286 51.42857,-51.4286 28.40321,0 51.42857,23.0254 51.42857,51.4286 z"
           transform="matrix(0.8890795,0,0,0.8890795,-145.72291,127.22921)" />
        <path
           transform="matrix(0.53304039,-0.46583988,0.31092561,0.35577871,-566.63809,1720.6668)"
           d="m 821.4286,2293.0764 c 0,16.1741 -13.11166,29.2857 -29.28572,29.2857 -16.17405,0 -29.28571,-13.1116 -29.28571,-29.2857 0,-16.174 13.11166,-29.2857 29.28571,-29.2857 16.17406,0 29.28572,13.1117 29.28572,29.2857 z"
           sodipodi:ry="29.285715"
           sodipodi:rx="29.285715"
           sodipodi:cy="2293.0764"
           sodipodi:cx="792.14288"
           id="path11747"
           style="color:#000000;fill:#ffffff;stroke:none;stroke-width:1;marker:none;visibility:visible;display:inline;overflow:visible;enable-background:accumulate"
           sodipodi:type="arc" />
        <path
           sodipodi:nodetypes="csssc"
           inkscape:connector-curvature="0"
           id="path11749"
           d="m 532.64884,2171.6872 c -10.79128,-28.3341 26.48541,-21.5624 38.18378,-36.7696 8.66441,-11.2632 4.57646,-22.8536 -7.9855,-27.5277 -19.7679,-7.3554 -51.76504,0.3284 -51.76504,37.4272 0,10.0637 10.81391,27.8548 21.56676,26.8701 z"
           style="color:#000000;fill:#44aa00;fill-opacity:1;stroke:none;stroke-width:1px;marker:none;visibility:visible;display:inline;overflow:visible;enable-background:accumulate" />
      </g>
      <g
         transform="matrix(-0.17519917,-0.3832323,0.3832323,-0.17519917,-199.53403,2473.5388)"
         id="g11751">
        <path
           sodipodi:type="arc"
           style="color:#000000;fill:#44aa00;fill-opacity:1;stroke:none;stroke-width:1;marker:none;visibility:visible;display:inline;overflow:visible;enable-background:accumulate"
           id="path11753"
           sodipodi:cx="782.85712"
           sodipodi:cy="2272.3623"
           sodipodi:rx="51.42857"
           sodipodi:ry="51.42857"
           d="m 834.28569,2272.3623 c 0,28.4032 -23.02536,51.4286 -51.42857,51.4286 -28.40322,0 -51.42857,-23.0254 -51.42857,-51.4286 0,-28.4032 23.02535,-51.4286 51.42857,-51.4286 28.40321,0 51.42857,23.0254 51.42857,51.4286 z"
           transform="matrix(0.9980148,0,0,0.9980148,-231.00368,-120.31126)" />
        <path
           transform="matrix(0.8890795,0,0,0.8890795,-145.72291,127.22921)"
           d="m 834.28569,2272.3623 c 0,28.4032 -23.02536,51.4286 -51.42857,51.4286 -28.40322,0 -51.42857,-23.0254 -51.42857,-51.4286 0,-28.4032 23.02535,-51.4286 51.42857,-51.4286 28.40321,0 51.42857,23.0254 51.42857,51.4286 z"
           sodipodi:ry="51.42857"
           sodipodi:rx="51.42857"
           sodipodi:cy="2272.3623"
           sodipodi:cx="782.85712"
           id="path11755"
           style="color:#000000;fill:#75d636;fill-opacity:1;stroke:none;stroke-width:1;marker:none;visibility:visible;display:inline;overflow:visible;enable-background:accumulate"
           sodipodi:type="arc" />
        <path
           sodipodi:type="arc"
           style="color:#000000;fill:#ffffff;stroke:none;stroke-width:1;marker:none;visibility:visible;display:inline;overflow:visible;enable-background:accumulate"
           id="path11757"
           sodipodi:cx="792.14288"
           sodipodi:cy="2293.0764"
           sodipodi:rx="29.285715"
           sodipodi:ry="29.285715"
           d="m 821.4286,2293.0764 c 0,16.1741 -13.11166,29.2857 -29.28572,29.2857 -16.17405,0 -29.28571,-13.1116 -29.28571,-29.2857 0,-16.174 13.11166,-29.2857 29.28571,-29.2857 16.17406,0 29.28572,13.1117 29.28572,29.2857 z"
           transform="matrix(0.53304039,-0.46583988,0.31092561,0.35577871,-566.63809,1720.6668)" />
        <path
           style="color:#000000;fill:#44aa00;fill-opacity:1;stroke:none;stroke-width:1px;marker:none;visibility:visible;display:inline;overflow:visible;enable-background:accumulate"
           d="m 532.64884,2171.6872 c -10.79128,-28.3341 26.48541,-21.5624 38.18378,-36.7696 8.66441,-11.2632 4.57646,-22.8536 -7.9855,-27.5277 -19.7679,-7.3554 -51.76504,0.3284 -51.76504,37.4272 0,10.0637 10.81391,27.8548 21.56676,26.8701 z"
           id="path11759"
           inkscape:connector-curvature="0"
           sodipodi:nodetypes="csssc" />
      </g>
      <g
         id="g11761"
         transform="matrix(-0.28975862,-0.63382071,0.63382071,-0.28975862,-764.7691,2711.7612)">
        <path
           transform="matrix(0.9980148,0,0,0.9980148,-231.00368,-120.31126)"
           d="m 834.28569,2272.3623 c 0,28.4032 -23.02536,51.4286 -51.42857,51.4286 -28.40322,0 -51.42857,-23.0254 -51.42857,-51.4286 0,-28.4032 23.02535,-51.4286 51.42857,-51.4286 28.40321,0 51.42857,23.0254 51.42857,51.4286 z"
           sodipodi:ry="51.42857"
           sodipodi:rx="51.42857"
           sodipodi:cy="2272.3623"
           sodipodi:cx="782.85712"
           id="path11763"
           style="color:#000000;fill:#44aa00;fill-opacity:1;stroke:none;stroke-width:1;marker:none;visibility:visible;display:inline;overflow:visible;enable-background:accumulate"
           sodipodi:type="arc" />
        <path
           sodipodi:type="arc"
           style="color:#000000;fill:#75d636;fill-opacity:1;stroke:none;stroke-width:1;marker:none;visibility:visible;display:inline;overflow:visible;enable-background:accumulate"
           id="path11765"
           sodipodi:cx="782.85712"
           sodipodi:cy="2272.3623"
           sodipodi:rx="51.42857"
           sodipodi:ry="51.42857"
           d="m 834.28569,2272.3623 c 0,28.4032 -23.02536,51.4286 -51.42857,51.4286 -28.40322,0 -51.42857,-23.0254 -51.42857,-51.4286 0,-28.4032 23.02535,-51.4286 51.42857,-51.4286 28.40321,0 51.42857,23.0254 51.42857,51.4286 z"
           transform="matrix(0.8890795,0,0,0.8890795,-145.72291,127.22921)" />
        <path
           transform="matrix(0.53304039,-0.46583988,0.31092561,0.35577871,-566.63809,1720.6668)"
           d="m 821.4286,2293.0764 c 0,16.1741 -13.11166,29.2857 -29.28572,29.2857 -16.17405,0 -29.28571,-13.1116 -29.28571,-29.2857 0,-16.174 13.11166,-29.2857 29.28571,-29.2857 16.17406,0 29.28572,13.1117 29.28572,29.2857 z"
           sodipodi:ry="29.285715"
           sodipodi:rx="29.285715"
           sodipodi:cy="2293.0764"
           sodipodi:cx="792.14288"
           id="path11767"
           style="color:#000000;fill:#ffffff;stroke:none;stroke-width:1;marker:none;visibility:visible;display:inline;overflow:visible;enable-background:accumulate"
           sodipodi:type="arc" />
        <path
           sodipodi:nodetypes="csssc"
           inkscape:connector-curvature="0"
           id="path11769"
           d="m 532.64884,2171.6872 c -10.79128,-28.3341 26.48541,-21.5624 38.18378,-36.7696 8.66441,-11.2632 4.57646,-22.8536 -7.9855,-27.5277 -19.7679,-7.3554 -51.76504,0.3284 -51.76504,37.4272 0,10.0637 10.81391,27.8548 21.56676,26.8701 z"
           style="color:#000000;fill:#44aa00;fill-opacity:1;stroke:none;stroke-width:1px;marker:none;visibility:visible;display:inline;overflow:visible;enable-background:accumulate" />
      </g>
    </g>
  </g>
</svg>
